<svg xmlns="http://www.w3.org/2000/svg">

    <symbol id="menu" xmlns="http://www.w3.org/2000/svg" viewBox="0 0 40 10" fill="none"><path fill-rule="evenodd" clip-rule="evenodd" d="M1 0C0.447715 0 0 0.447715 0 1C0 1.55228 0.447714 2 0.999999 2H39C39.5523 2 40 1.55228 40 1C40 0.447715 39.5523 0 39 0H1ZM9 8C8.44771 8 8 8.44771 8 9C8 9.55229 8.44771 10 9 10H39C39.5523 10 40 9.55229 40 9C40 8.44771 39.5523 8 39 8H9Z" fill="#FFE500"/></symbol>

    <symbol id="user-sm" xmlns="http://www.w3.org/2000/svg" fill="none" viewBox="0 0 40 40"><rect width="40" height="40" fill="#3D3667" rx="12"/><circle cx="20" cy="13" r="4" stroke="#100B2E" stroke-width="2"/><path stroke="#100B2E" stroke-width="2" d="M12 26.6667C12 22.9848 14.9848 20 18.6667 20h2.6666C25.0152 20 28 22.9848 28 26.6667v0C28 28.5076 26.5076 30 24.6667 30h-9.3334C13.4924 30 12 28.5076 12 26.6667v0z"/></symbol>

    <symbol id="user-md" xmlns="http://www.w3.org/2000/svg" fill="none" viewBox="0 0 56 56"><rect width="56" height="56" fill="#3D3667" rx="16"/><path fill="#100B2E" fill-rule="evenodd" d="M28 14.8c-2.3196 0-4.2 1.8804-4.2 4.2 0 2.3196 1.8804 4.2 4.2 4.2 2.3196 0 4.2-1.8804 4.2-4.2 0-2.3196-1.8804-4.2-4.2-4.2zM21 19c0-3.866 3.134-7 7-7s7 3.134 7 7-3.134 7-7 7-7-3.134-7-7zM15 37.2222C15 31.5766 19.958 27 26.0741 27h3.8518C36.042 27 41 31.5766 41 37.2222 41 40.4132 38.1976 43 34.7407 43H21.2593C17.8024 43 15 40.4132 15 37.2222zm11.0741-7.5555c-4.5206 0-8.1852 3.3827-8.1852 7.5555 0 1.7182 1.509 3.1111 3.3704 3.1111h13.4814c1.8614 0 3.3704-1.3929 3.3704-3.1111 0-4.1728-3.6646-7.5555-8.1852-7.5555h-3.8518z" clip-rule="evenodd"/></symbol>

    <symbol id="user-stat" xmlns="http://www.w3.org/2000/svg" fill="none" viewBox="0 0 56 18"><path fill="#100B2E" fill-rule="evenodd" d="M45.0058 2.51444C44.3983.995804 42.9275 0 41.2919 0H14.7081c-1.6356 0-3.1064.995805-3.7139 2.51444L8.65587 8.36032c-.41779 1.04449-1.25609 1.86478-2.30941 2.25978L0 13v5h56v-5l-6.3465-2.3799c-1.0533-.395-1.8916-1.21529-2.3094-2.25978l-2.3383-5.84588z" clip-rule="evenodd"/></symbol>

    <symbol id="social-vkontakte" xmlns="http://www.w3.org/2000/svg" viewBox="0 0 23.5 14.62"><path fill="none" stroke="#ffe500" stroke-linejoin="round" stroke-width="1.5" d="M4.52.85a1.73 1.73 0 01.65 1c0 .12.09.26.11.3l.2.51c.15.38.21.54.4 1s.91 1.84 1.16 2.25a7.56 7.56 0 001.63 2c.26.18.55.19.66 0s.09-.25.09-2.44 0-2.33-.1-2.58a2.36 2.36 0 00-.45-.86c-.34-.44-.41-.59-.38-.77A.65.65 0 018.9.77c.23-.07 4.09-.07 4.32 0a.43.43 0 01.28.22l.12.18v2.77c0 2.92 0 2.93.23 3.06s.13.06.3 0a5.49 5.49 0 001.9-2l.28-.41c.07-.09.48-.8.68-1.16s.26-.49.33-.64.27-.55.43-.9c.32-.71.47-.92.73-1.06s.21-.1 1.78-.1h1.6l.17.11c.21.15.26.34.2.71a1.65 1.65 0 01-.09.36l-.15.36a25.19 25.19 0 01-2.11 3.59l-.66 1c-.48.69-.53.87-.34 1.2a10.46 10.46 0 00.82.91 25 25 0 011.74 1.92 8 8 0 011.2 1.8 1.21 1.21 0 010 .75.75.75 0 01-.35.33c-.13.07-.27.08-1.7.08h-1.56l-.28-.16a7.7 7.7 0 01-1.49-1.44 10.16 10.16 0 00-2.44-2.12 1.89 1.89 0 00-.68-.2.66.66 0 00-.48.22 9.26 9.26 0 00-.08 1.62c0 1.49 0 1.51-.12 1.64-.24.32-.62.43-1.56.43a6.57 6.57 0 01-1.71-.19l-.46-.14-.43-.15a.7.7 0 00-.17-.06h-.14l-.38-.19a9.78 9.78 0 01-1.35-.79 11.81 11.81 0 01-2.19-2.05 11.44 11.44 0 01-.69-.92 30 30 0 01-2.55-4.33l-.26-.57-.18-.42-.33-.92a4.22 4.22 0 01-.13-.41c0-.18-.11-.39-.14-.47a3.74 3.74 0 01-.06-.48c-.07-.58.06-.86.46-1h1.64c1.35 0 1.55 0 1.67.1z"/></symbol>

    <symbol id="social-instagram" xmlns="http://www.w3.org/2000/svg" fill="none" viewBox="0 0 24 24"><rect width="22" height="22" x="1" y="1" stroke="#FFE500" stroke-width="2" rx="6"/><circle cx="12" cy="12" r="5" stroke="#FFE500" stroke-width="2"/><circle cx="18" cy="6" r="1" fill="#FFE500"/></symbol>

</svg>