<svg xmlns="http://www.w3.org/2000/svg">

    <symbol id="menu" xmlns="http://www.w3.org/2000/svg" viewBox="0 0 40 10" fill="none"><path fill-rule="evenodd" clip-rule="evenodd" d="M1 0C0.447715 0 0 0.447715 0 1C0 1.55228 0.447714 2 0.999999 2H39C39.5523 2 40 1.55228 40 1C40 0.447715 39.5523 0 39 0H1ZM9 8C8.44771 8 8 8.44771 8 9C8 9.55229 8.44771 10 9 10H39C39.5523 10 40 9.55229 40 9C40 8.44771 39.5523 8 39 8H9Z" fill="#FFE500"/></symbol>

    <symbol id="user-sm" xmlns="http://www.w3.org/2000/svg" fill="none" viewBox="0 0 40 40"><rect width="40" height="40" fill="#3D3667" rx="12"/><circle cx="20" cy="13" r="4" stroke="#100B2E" stroke-width="2"/><path stroke="#100B2E" stroke-width="2" d="M12 26.6667C12 22.9848 14.9848 20 18.6667 20h2.6666C25.0152 20 28 22.9848 28 26.6667v0C28 28.5076 26.5076 30 24.6667 30h-9.3334C13.4924 30 12 28.5076 12 26.6667v0z"/></symbol>

    <symbol id="user-md" xmlns="http://www.w3.org/2000/svg" fill="none" viewBox="0 0 56 56"><rect width="56" height="56" fill="#3D3667" rx="16"/><path fill="#100B2E" fill-rule="evenodd" d="M28 14.8c-2.3196 0-4.2 1.8804-4.2 4.2 0 2.3196 1.8804 4.2 4.2 4.2 2.3196 0 4.2-1.8804 4.2-4.2 0-2.3196-1.8804-4.2-4.2-4.2zM21 19c0-3.866 3.134-7 7-7s7 3.134 7 7-3.134 7-7 7-7-3.134-7-7zM15 37.2222C15 31.5766 19.958 27 26.0741 27h3.8518C36.042 27 41 31.5766 41 37.2222 41 40.4132 38.1976 43 34.7407 43H21.2593C17.8024 43 15 40.4132 15 37.2222zm11.0741-7.5555c-4.5206 0-8.1852 3.3827-8.1852 7.5555 0 1.7182 1.509 3.1111 3.3704 3.1111h13.4814c1.8614 0 3.3704-1.3929 3.3704-3.1111 0-4.1728-3.6646-7.5555-8.1852-7.5555h-3.8518z" clip-rule="evenodd"/></symbol>

    <symbol id="user-stat" xmlns="http://www.w3.org/2000/svg" fill="none" viewBox="0 0 56 18"><path fill="#100B2E" fill-rule="evenodd" d="M45.0058 2.51444C44.3983.995804 42.9275 0 41.2919 0H14.7081c-1.6356 0-3.1064.995805-3.7139 2.51444L8.65587 8.36032c-.41779 1.04449-1.25609 1.86478-2.30941 2.25978L0 13v5h56v-5l-6.3465-2.3799c-1.0533-.395-1.8916-1.21529-2.3094-2.25978l-2.3383-5.84588z" clip-rule="evenodd"/></symbol>

    <symbol id="mouse-scroll" xmlns="http://www.w3.org/2000/svg" viewBox="0 0 512 512"><path d="M256 0C156.595 0 75.726 82.14 75.726 183.099v145.807C75.726 429.865 156.595 512 256 512c99.399 0 180.274-81.886 180.274-182.534V183.099C436.274 82.14 355.399 0 256 0zm146.366 329.466c0 81.954-65.656 148.627-146.366 148.627-80.705 0-146.366-66.927-146.366-149.192V183.099c0-82.265 65.661-149.192 146.366-149.192 80.711 0 146.366 66.927 146.366 149.192v146.367z"/><path d="M256 140.15c-9.364 0-16.954 7.59-16.954 16.954v59.338c0 9.364 7.59 16.954 16.954 16.954s16.954-7.59 16.954-16.954v-59.338c0-9.364-7.59-16.954-16.954-16.954z"/></symbol>

    <symbol id="social-vkontakte" xmlns="http://www.w3.org/2000/svg" viewBox="0 0 23.5 14.62"><path fill="none" stroke="#ffe500" stroke-linejoin="round" stroke-width="1.5" d="M4.52.85a1.73 1.73 0 01.65 1c0 .12.09.26.11.3l.2.51c.15.38.21.54.4 1s.91 1.84 1.16 2.25a7.56 7.56 0 001.63 2c.26.18.55.19.66 0s.09-.25.09-2.44 0-2.33-.1-2.58a2.36 2.36 0 00-.45-.86c-.34-.44-.41-.59-.38-.77A.65.65 0 018.9.77c.23-.07 4.09-.07 4.32 0a.43.43 0 01.28.22l.12.18v2.77c0 2.92 0 2.93.23 3.06s.13.06.3 0a5.49 5.49 0 001.9-2l.28-.41c.07-.09.48-.8.68-1.16s.26-.49.33-.64.27-.55.43-.9c.32-.71.47-.92.73-1.06s.21-.1 1.78-.1h1.6l.17.11c.21.15.26.34.2.71a1.65 1.65 0 01-.09.36l-.15.36a25.19 25.19 0 01-2.11 3.59l-.66 1c-.48.69-.53.87-.34 1.2a10.46 10.46 0 00.82.91 25 25 0 011.74 1.92 8 8 0 011.2 1.8 1.21 1.21 0 010 .75.75.75 0 01-.35.33c-.13.07-.27.08-1.7.08h-1.56l-.28-.16a7.7 7.7 0 01-1.49-1.44 10.16 10.16 0 00-2.44-2.12 1.89 1.89 0 00-.68-.2.66.66 0 00-.48.22 9.26 9.26 0 00-.08 1.62c0 1.49 0 1.51-.12 1.64-.24.32-.62.43-1.56.43a6.57 6.57 0 01-1.71-.19l-.46-.14-.43-.15a.7.7 0 00-.17-.06h-.14l-.38-.19a9.78 9.78 0 01-1.35-.79 11.81 11.81 0 01-2.19-2.05 11.44 11.44 0 01-.69-.92 30 30 0 01-2.55-4.33l-.26-.57-.18-.42-.33-.92a4.22 4.22 0 01-.13-.41c0-.18-.11-.39-.14-.47a3.74 3.74 0 01-.06-.48c-.07-.58.06-.86.46-1h1.64c1.35 0 1.55 0 1.67.1z"/></symbol>

    <symbol id="social-instagram" xmlns="http://www.w3.org/2000/svg" fill="none" viewBox="0 0 24 24"><rect width="22" height="22" x="1" y="1" stroke="#FFE500" stroke-width="2" rx="6"/><circle cx="12" cy="12" r="5" stroke="#FFE500" stroke-width="2"/><circle cx="18" cy="6" r="1" fill="#FFE500"/></symbol>

    <symbol id="social-tiktok" xmlns="http://www.w3.org/2000/svg" fill="none" viewBox="0 0 21 24"><path stroke="#FFE500" stroke-linejoin="round" stroke-width="2" d="M11.0538 9.01419L11 16.016S11 19 8 19s-4.0572-4.1712-2.141-5.6653c.67611-.5272 1.14594-.6536 2.11778-.5748V9.15073c-1.69462-.34649-3.54565.45343-4.97426 1.91397-1.36077 1.3911-1.99604 2.9619-2.00247 4.9513-.006194 1.9278.62387 3.5252 1.92226 4.8734 3.69289 3.8343 9.93679 2.21 11.45129-2.979.1951-.6685.2166-1.2261.1871-4.8432l-.0331-4.08794.8904.45848c1.0979.56526 2.4236.92206 3.6118.97216l.902.038.034-1.9127L20 6.62255l-.8388-.06606c-2.5655-.20197-4.1056-1.74751-4.4873-4.50335-.0615-.44381-.1268-1.03315-.1268-1.03315L11.0882 1l-.0344 8.01419z" clip-rule="evenodd"/></symbol>

    <symbol id="social-discord" xmlns="http://www.w3.org/2000/svg" viewBox="0 0 23.5 17.31"><defs><clipPath id="a" transform="translate(-671.25 -375.25)"><path fill="none" d="M671 372h24v24h-24z"/></clipPath></defs><g clip-path="url(#a)"><path fill="none" stroke="#ffe500" stroke-linejoin="round" stroke-width="1.5" d="M7.96.84a9.43 9.43 0 00-2.9.93 8.82 8.82 0 00-1.57 1 5.34 5.34 0 00-.4.78 25.89 25.89 0 00-2.31 9.49v.69l.3.37a7.12 7.12 0 005.14 2.45h.31l.61-.75a4.16 4.16 0 00.57-.79 1.66 1.66 0 00-.37-.14 7.24 7.24 0 01-1.55-.81 6.69 6.69 0 01-1.23-1.15c-.06-.12-.06-.12.05 0a14.66 14.66 0 005.23 1.91 17.12 17.12 0 003.36.09 13.44 13.44 0 003-.65 13.15 13.15 0 002.65-1.22c.13-.08.25-.14.26-.12a5.62 5.62 0 01-1.26 1.21 8.49 8.49 0 01-1.7.86 1.78 1.78 0 00-.31.12 9.39 9.39 0 001.22 1.51c.19 0 1.29-.15 1.56-.21a7.71 7.71 0 002.59-1.13 7.08 7.08 0 001.42-1.34l.14-.21-.06-1a23.93 23.93 0 00-1-5.74 17.94 17.94 0 00-1.75-4.25A9.7 9.7 0 0015.3.86l-.55-.11-.14.14-.15.15.53.18a13.93 13.93 0 013.85 2c.14.11.23.19.21.19l-.55-.26a15.34 15.34 0 00-7.63-1.55 15.61 15.61 0 00-6.26 1.54c-.31.15-.59.27-.6.27a5.41 5.41 0 01.85-.64 15.53 15.53 0 013.4-1.59l.58-.2s0-.06-.07-.11-.16-.12-.81-.03zm1 7.06a2 2 0 011.16 1.15 3 3 0 010 1.45 2 2 0 01-1.08 1.29 1.34 1.34 0 01-.76.15 1.28 1.28 0 01-.76-.16 2.14 2.14 0 01-1.13-2.27 2 2 0 01.53-1.12 1.85 1.85 0 012.01-.49zm6.81 0a2.18 2.18 0 01.1 3.92 1.29 1.29 0 01-.74.14 1.36 1.36 0 01-.76-.14 2.18 2.18 0 01-1.15-2.25 1.94 1.94 0 012.53-1.69z"/></g></symbol>

    <symbol id="social-youtube" xmlns="http://www.w3.org/2000/svg" viewBox="0 0 24 18"><rect width="22" height="16" x="1" y="1" fill="none" stroke="#ffe500" stroke-width="2" rx="4"/><path fill="none" stroke="#ffe500" stroke-linejoin="round" stroke-width="2" d="M10 6l6 3-6 3z"/></symbol>

    <symbol id="social-telegram" xmlns="http://www.w3.org/2000/svg" viewBox="0 0 149.3 130.71"><path fill="none" stroke="#ffe500" stroke-linecap="square" stroke-linejoin="round" stroke-width="12" d="M101 42.5L57.5 82l-2 35.5H62l17.5-16 28 21a11.34 11.34 0 009 2q4.5-1 6-6.5l20-96.5q2-9-1-13T131 7L12 53.5Q6 56.01 6 61t6 7l32 10 56.5-36z"/></symbol>

</svg>