<svg xmlns="http://www.w3.org/2000/svg">

    <symbol id="arrow-back" fill="none" xmlns="http://www.w3.org/2000/svg" viewBox="0 0 46 36"><g filter="url(#filter0_d)"><path d="M17.959 10.464a.999.999 0 01-.003 1.325l-3.015 3.274h18.2c.474 0 .859.42.859.937 0 .518-.385.938-.86.938h-18.2l3.016 3.273a.999.999 0 01.003 1.325.81.81 0 01-1.216.003l-4.49-4.875a1 1 0 01-.001-1.328l4.491-4.876a.81.81 0 011.216.004z" fill="#FFE500"/></g><defs><filter id="filter0_d" x="-1" y="-6" width="48" height="48" filterUnits="userSpaceOnUse" color-interpolation-filters="sRGB"><feFlood flood-opacity="0" result="BackgroundImageFix"/><feColorMatrix in="SourceAlpha" values="0 0 0 0 0 0 0 0 0 0 0 0 0 0 0 0 0 0 127 0"/><feOffset dy="2"/><feGaussianBlur stdDeviation="6"/><feColorMatrix values="0 0 0 0 0.811765 0 0 0 0 0.72549 0 0 0 0 0.0352941 0 0 0 1 0"/><feBlend in2="BackgroundImageFix" result="effect1_dropShadow"/><feBlend in="SourceGraphic" in2="effect1_dropShadow" result="shape"/></filter></defs></symbol>

    <symbol id="lang-selector" fill="none" xmlns="http://www.w3.org/2000/svg" viewBox="0 0 8 8"><path d="M0 4h8L4 8 0 4z" fill="#fff"/></symbol>

    <symbol id="flag-rus" xmlns="http://www.w3.org/2000/svg" viewBox="0 0 512 512"><path fill="#f0f0f0" d="M0 85.33v341.332h512V85.33z"/><path fill="#0052b4" d="M0 85.333h512V426.67H0z"/><path fill="#f0f0f0" d="M0 85.333h512v113.775H0z"/><path fill="#d80027" d="M0 312.884h512v113.775H0z"/></symbol>

    <symbol id="flag-eng" xmlns="http://www.w3.org/2000/svg" viewBox="0 0 512 512"><path fill="#f0f0f0" d="M0 85.333h512V426.67H0z"/><path fill="#d80027" d="M288 85.33h-64v138.666H0v64h224v138.666h64V287.996h224v-64H288z"/><g fill="#0052b4"><path d="M393.785 315.358L512 381.034v-65.676zM311.652 315.358L512 426.662v-31.474l-143.693-79.83zM458.634 426.662l-146.982-81.664v81.664z"/></g><path fill="#f0f0f0" d="M311.652 315.358L512 426.662v-31.474l-143.693-79.83z"/><path fill="#d80027" d="M311.652 315.358L512 426.662v-31.474l-143.693-79.83z"/><g fill="#0052b4"><path d="M90.341 315.356L0 365.546v-50.19zM200.348 329.51v97.151H25.491z"/></g><path fill="#d80027" d="M143.693 315.358L0 395.188v31.474l200.348-111.304z"/><g fill="#0052b4"><path d="M118.215 196.634L0 130.958v65.676zM200.348 196.634L0 85.33v31.474l143.693 79.83zM53.366 85.33l146.982 81.664V85.33z"/></g><path fill="#f0f0f0" d="M200.348 196.634L0 85.33v31.474l143.693 79.83z"/><path fill="#d80027" d="M200.348 196.634L0 85.33v31.474l143.693 79.83z"/><g fill="#0052b4"><path d="M421.659 196.636L512 146.446v50.19zM311.652 182.482V85.331h174.857z"/></g><path fill="#d80027" d="M368.307 196.634L512 116.804V85.33L311.652 196.634z"/></symbol>

    <symbol id="mouse-scroll" xmlns="http://www.w3.org/2000/svg" viewBox="0 0 512 512"><path d="M256 0C156.595 0 75.726 82.14 75.726 183.099v145.807C75.726 429.865 156.595 512 256 512c99.399 0 180.274-81.886 180.274-182.534V183.099C436.274 82.14 355.399 0 256 0zm146.366 329.466c0 81.954-65.656 148.627-146.366 148.627-80.705 0-146.366-66.927-146.366-149.192V183.099c0-82.265 65.661-149.192 146.366-149.192 80.711 0 146.366 66.927 146.366 149.192v146.367z"/><path d="M256 140.15c-9.364 0-16.954 7.59-16.954 16.954v59.338c0 9.364 7.59 16.954 16.954 16.954s16.954-7.59 16.954-16.954v-59.338c0-9.364-7.59-16.954-16.954-16.954z"/></symbol>

    <!-- Social -->

    <symbol id="vkontakte" xmlns="http://www.w3.org/2000/svg" fill="none" viewBox="0 0 24 14"><path stroke="#FFE500" stroke-linejoin="round" stroke-width="1.5" d="M4.76729 1.09726c.25725.14084.44894.44154.65 1.01979.04186.12044.09302.25839.11369.30656.02067.04818.10966.27481.19782.50364.14749.38289.21161.53797.39826.96347.20702.47188.91696 1.83967 1.1662 2.24669.62643 1.02316 1.21301 1.75913 1.63164 2.04712.25987.17881.54213.18266.65993.00897.07717-.11377.08168-.24866.08168-2.44152 0-2.25865-.0025-2.32815-.0935-2.58386-.15284-.42958-.19585-.51021-.45577-.85399-.33454-.44245-.40715-.59219-.37715-.77726.03547-.21845.21923-.43698.41267-.49072.22265-.061833 4.09094-.061395 4.31384.00049.1189.03302.1985.09639.2846.22641l.1196.18057.022 2.76227c.0233 2.92244.0239 2.93085.2318 3.06709.0937.0614.1238.06166.2906.00285.4731-.16695 1.1862-.91513 1.9002-1.99369.1354-.20474.2623-.39196.2817-.41605.07-.08667.4847-.79591.6785-1.16055.1089-.20473.2606-.49049.3372-.63501.0767-.14452.2688-.54852.4269-.89778.3225-.71245.467-.92297.7301-1.06368.1774-.0949.2137-.09687 1.7828-.09687h1.6017l.1616.10948c.2123.14378.2687.3402.2046.71219-.026.15025-.0653.3126-.0875.36077-.0222.04818-.0888.20584-.148.35036-.2859.6983-.9966 1.90715-2.1112 3.59112-.2231.33722-.5228.7809-.6659.98599-.4795.68757-.5313.87006-.3394 1.19742.0595.10147.4292.50902.8217.90562.6294.63611 1.038 1.08725 1.7401 1.92165.541.6428 1.0486 1.4065 1.1969 1.8008.0854.2271.0982.6159.0249.7569-.067.1288-.1697.2235-.3485.3209-.1374.0748-.2721.0813-1.7039.0813H19.345l-.2846-.1606c-.2892-.1631-.5537-.4183-1.489-1.4363-.9957-1.0835-1.8394-1.8161-2.446-2.1238-.2004-.1016-.5282-.1979-.6758-.1984-.1791-.0007-.4102.1088-.4764.2257-.0435.077-.0634.4757-.0802 1.6131-.022 1.492-.0235 1.5126-.123 1.6451-.2399.3196-.6212.424-1.5634.428-.6636.0029-1.3072-.0692-1.708-.1913-.0723-.022-.2765-.0823-.4539-.134-.17739-.0517-.37447-.1211-.43793-.1542-.0635-.0331-.14036-.0603-.17079-.0605-.03044-.0001-.08956-.0193-.13139-.0426-.04182-.0233-.21397-.1086-.38258-.1895-.48415-.2323-.83625-.437-1.35171-.7858-.65126-.4408-1.43737-1.1751-2.19243-2.0479-.13957-.1614-.4654-.59517-.69081-.91973-1.05623-1.52075-1.95121-3.04558-2.54475-4.33563-.08308-.18065-.20154-.43803-.26325-.57195-.06166-.13397-.14014-.32119-.17443-.41605-.17999-.49846-.30551-.83883-.33818-.91705-.0201-.04817-.07791-.23539-.12845-.41604-.05049-.18065-.11106-.38911-.13458-.4633-.02351-.07414-.06131-.28151-.08404-.46076-.073791-.58194.05983-.86332.45761-.96343.07226-.01817.81129-.02956 1.64228-.02531 1.33498.00683 1.52689.01651 1.64802.08281z" clip-rule="evenodd"/></symbol>

    <symbol id="discord" xmlns="http://www.w3.org/2000/svg" fill="none" viewBox="0 0 24 16"><path stroke="#FFE500" stroke-linejoin="round" stroke-width="1.5" d="M8.20459 1.08612c-.96353.13961-1.94923.45625-2.89676.93065-.56282.28175-1.42839.82388-1.56888.98267-.04736.05353-.22616.40364-.39728.77797C1.97058 6.77693 1.18614 10.0008 1.03234 13.268L1 13.9553l.3005.3735c1.14047 1.4178 3.1126 2.3567 5.13797 2.4463l.31356.0139.61009-.7499c.33553-.4124.59081-.7675.56723-.789-.02354-.0216-.18859-.0869-.36675-.145-.41911-.1369-1.09316-.4849-1.55709-.8039-.39019-.2683-1.11801-.9548-1.22537-1.1558-.06361-.1191-.06298-.1197.05304-.0454 1.39708.8932 3.31646 1.5931 5.23082 1.9072.7969.1307 2.5305.1803 3.355.0958 1.0816-.1108 2.1216-.338 3.0078-.657 1.1904-.4286 1.9717-.7865 2.6549-1.2165.1289-.0811.2466-.1351.2618-.12.0581.0582-.8462.9261-1.2614 1.2105-.4493.3077-1.2312.7011-1.7058.8583-.148.049-.2859.1025-.3063.1189-.0549.0439 1.1355 1.5169 1.225 1.5159.1848-.0022 1.2872-.1562 1.554-.2171.9451-.2157 1.8149-.5925 2.5899-1.1221.4671-.3192 1.1808-.9954 1.4176-1.3432L23 13.9201l-.0612-.9877c-.1306-2.1107-.411-3.70243-1.0114-5.74008-.5085-1.72609-1.4213-3.94832-1.7469-4.25297-.3774-.353-1.6448-1.04525-2.496-1.36332-.6007-.22435-1.5294-.44827-2.1594-.52049L15.0409 1l-.1433.14318-.1431.14322.5295.18639c1.5223.53571 2.9419 1.26882 3.8512 1.98876.1313.10399.2246.18908.2071.18908-.0174 0-.268-.11832-.5569-.26296-2.2853-1.14434-5.106-1.71788-7.6287-1.55122-2.54137.16789-4.2178.58103-6.25271 1.54084-.3187.15032-.59027.27334-.60349.27334-.05231 0 .38266-.32452.85442-.63745.89468-.59345 2.16301-1.18783 3.3922-1.58967.3095-.10114.57178-.19181.58284-.2014.01101-.00964-.01992-.06166-.06875-.11568-.10276-.113525-.1975-.115776-.85662-.02031zm.97865 7.06269c.53826.20576.98716.65158 1.15426 1.14624.1129.33416.1002 1.04625-.026 1.45455-.1849.5983-.5507 1.0347-1.07932 1.2876-.28327.1355-.36636.1522-.75949.1522-.39978 0-.4721-.0152-.76687-.1602-.81433-.4009-1.28277-1.3485-1.12408-2.27398.0801-.46711.24251-.80974.52901-1.11601.55568-.59414 1.32505-.77617 2.07249-.4904zm6.80166-.02295c.7382.25655 1.2808 1.09227 1.2808 1.97254-.0001.8729-.435 1.5934-1.1812 1.9564-.2351.1144-.3323.132-.7357.1332-.4169.0012-.4952-.0135-.7585-.1426-.8064-.3953-1.2787-1.3211-1.1472-2.24844.1839-1.29623 1.3722-2.07749 2.5418-1.6711z" clip-rule="evenodd"/></symbol>

    <symbol id="youtube" xmlns="http://www.w3.org/2000/svg" fill="none" viewBox="0 0 24 18"><rect width="22" height="16" x="1" y="1" stroke="#FFE500" stroke-width="2" rx="4"/><path stroke="#FFE500" stroke-linejoin="round" stroke-width="2" d="M10 6l6 3-6 3V6z"/></symbol>

    <symbol id="instagram" xmlns="http://www.w3.org/2000/svg" fill="none" viewBox="0 0 24 24"><rect x="1" y="1" width="22" height="22" rx="6" stroke="#FFE500" stroke-width="2"/><circle cx="12" cy="12" r="5" stroke="#FFE500" stroke-width="2"/><circle cx="18" cy="6" r="1" fill="#FFE500"/></symbol>

    <symbol id="tiktok" xmlns="http://www.w3.org/2000/svg" fill="none" viewBox="0 0 21 24"><path fill-rule="evenodd" clip-rule="evenodd" d="M11.0538 9.01419L11 16.016S11 19 8 19s-4.0572-4.1712-2.141-5.6653c.67611-.5272 1.14594-.6536 2.11778-.5748V9.15073c-1.69462-.34649-3.54565.45343-4.97426 1.91397-1.36077 1.3911-1.99604 2.9619-2.00247 4.9513-.006194 1.9278.62387 3.5252 1.92226 4.8734 3.69289 3.8343 9.93679 2.21 11.45129-2.979.1951-.6685.2166-1.2261.1871-4.8432l-.0331-4.08794.8904.45848c1.0979.56526 2.4236.92206 3.6118.97216l.902.038.034-1.9127L20 6.62255l-.8388-.06606c-2.5655-.20197-4.1056-1.74751-4.4873-4.50335-.0615-.44381-.1268-1.03315-.1268-1.03315L11.0882 1l-.0344 8.01419z" stroke="#FFE500" stroke-width="2" stroke-linejoin="round"/></symbol>

</svg>