<svg xmlns="http://www.w3.org/2000/svg">

    <symbol id="arrow-back" fill="none" xmlns="http://www.w3.org/2000/svg" viewBox="0 0 46 36"><g filter="url(#filter0_d)"><path d="M17.959 10.464a.999.999 0 01-.003 1.325l-3.015 3.274h18.2c.474 0 .859.42.859.937 0 .518-.385.938-.86.938h-18.2l3.016 3.273a.999.999 0 01.003 1.325.81.81 0 01-1.216.003l-4.49-4.875a1 1 0 01-.001-1.328l4.491-4.876a.81.81 0 011.216.004z" fill="#FFE500"/></g><defs><filter id="filter0_d" x="-1" y="-6" width="48" height="48" filterUnits="userSpaceOnUse" color-interpolation-filters="sRGB"><feFlood flood-opacity="0" result="BackgroundImageFix"/><feColorMatrix in="SourceAlpha" values="0 0 0 0 0 0 0 0 0 0 0 0 0 0 0 0 0 0 127 0"/><feOffset dy="2"/><feGaussianBlur stdDeviation="6"/><feColorMatrix values="0 0 0 0 0.811765 0 0 0 0 0.72549 0 0 0 0 0.0352941 0 0 0 1 0"/><feBlend in2="BackgroundImageFix" result="effect1_dropShadow"/><feBlend in="SourceGraphic" in2="effect1_dropShadow" result="shape"/></filter></defs></symbol>

    <symbol id="lang-selector" fill="none" xmlns="http://www.w3.org/2000/svg" viewBox="0 0 8 8"><path d="M0 4h8L4 8 0 4z" fill="#fff"/></symbol>

    <symbol id="flag-rus" xmlns="http://www.w3.org/2000/svg" viewBox="0 0 512 512"><path fill="#f0f0f0" d="M0 85.33v341.332h512V85.33z"/><path fill="#0052b4" d="M0 85.333h512V426.67H0z"/><path fill="#f0f0f0" d="M0 85.333h512v113.775H0z"/><path fill="#d80027" d="M0 312.884h512v113.775H0z"/></symbol>

    <symbol id="flag-eng" xmlns="http://www.w3.org/2000/svg" viewBox="0 0 512 512"><path fill="#f0f0f0" d="M0 85.333h512V426.67H0z"/><path fill="#d80027" d="M288 85.33h-64v138.666H0v64h224v138.666h64V287.996h224v-64H288z"/><g fill="#0052b4"><path d="M393.785 315.358L512 381.034v-65.676zM311.652 315.358L512 426.662v-31.474l-143.693-79.83zM458.634 426.662l-146.982-81.664v81.664z"/></g><path fill="#f0f0f0" d="M311.652 315.358L512 426.662v-31.474l-143.693-79.83z"/><path fill="#d80027" d="M311.652 315.358L512 426.662v-31.474l-143.693-79.83z"/><g fill="#0052b4"><path d="M90.341 315.356L0 365.546v-50.19zM200.348 329.51v97.151H25.491z"/></g><path fill="#d80027" d="M143.693 315.358L0 395.188v31.474l200.348-111.304z"/><g fill="#0052b4"><path d="M118.215 196.634L0 130.958v65.676zM200.348 196.634L0 85.33v31.474l143.693 79.83zM53.366 85.33l146.982 81.664V85.33z"/></g><path fill="#f0f0f0" d="M200.348 196.634L0 85.33v31.474l143.693 79.83z"/><path fill="#d80027" d="M200.348 196.634L0 85.33v31.474l143.693 79.83z"/><g fill="#0052b4"><path d="M421.659 196.636L512 146.446v50.19zM311.652 182.482V85.331h174.857z"/></g><path fill="#d80027" d="M368.307 196.634L512 116.804V85.33L311.652 196.634z"/></symbol>

</svg>