<svg id="Слой_1" data-name="Слой 1" xmlns="http://www.w3.org/2000/svg" viewBox="0 0 192 192"><defs><style>.cls-1{fill:#ffe500;opacity:0.65;isolation:isolate;}.cls-2{fill:#403725;stroke:#282129;}.cls-3{fill:none;stroke:#ffe500;stroke-linecap:round;stroke-linejoin:round;stroke-width:2px;}</style></defs><title>avatar-edit</title><rect class="cls-1" width="192" height="192" rx="32"/><circle class="cls-2" cx="96" cy="96" r="27.5"/><path class="cls-3" d="M690.2,374.8H675.8a4.81,4.81,0,0,0-4.8,4.8v9.6a4.81,4.81,0,0,0,4.8,4.8h14.4a4.81,4.81,0,0,0,4.8-4.8v-9.6A4.81,4.81,0,0,0,690.2,374.8ZM683,389.2a4.8,4.8,0,1,1,4.8-4.8A4.81,4.81,0,0,1,683,389.2Z" transform="translate(-587 -288)"/><path class="cls-3" d="M689,374.8l-2.4-4.8h-7.2l-2.4,4.8" transform="translate(-587 -288)"/></svg>