<svg id="Слой_1" data-name="Слой 1" xmlns="http://www.w3.org/2000/svg" xmlns:xlink="http://www.w3.org/1999/xlink" viewBox="0 0 856 856"><defs><style>.cls-1{opacity:0.3;}.cls-2,.cls-3,.cls-4{fill:none;}.cls-2{stroke:#9f0443;stroke-miterlimit:10;}.cls-3{stroke:#70073c;}.cls-4{stroke:#400935;}.cls-5{fill:url(#Безымянный_градиент_2);}</style><radialGradient id="Безымянный_градиент_2" cx="0.89" cy="769.59" r="1" gradientTransform="matrix(0, 428, 428, 0, -328958, 45)" gradientUnits="userSpaceOnUse"><stop offset="0"/><stop offset="1" stop-color="#100b2e" stop-opacity="0"/></radialGradient></defs><title>bg-video</title><g class="cls-1"><path class="cls-2" d="M682.67,17.76V41.35" transform="translate(-255 44)"/><path class="cls-2" d="M702.7,18.32l-1.31,23.59" transform="translate(-255 44)"/><path class="cls-2" d="M722.55,20l-2.44,23.4" transform="translate(-255 44)"/><path class="cls-2" d="M742.39,22.63,738.64,46" transform="translate(-255 44)"/><path class="cls-2" d="M762,26.56l-5,23" transform="translate(-255 44)"/><path class="cls-2" d="M781.51,31.43l-6.36,22.65" transform="translate(-255 44)"/><path class="cls-2" d="M800.6,37.23l-7.67,22.46" transform="translate(-255 44)"/><path class="cls-2" d="M819.32,44.16l-8.79,21.9" transform="translate(-255 44)"/><path class="cls-2" d="M837.67,52.21l-9.92,21.33" transform="translate(-255 44)"/><path class="cls-2" d="M855.64,61.19,844.41,82" transform="translate(-255 44)"/><path class="cls-2" d="M873.05,71.11,860.69,91.33" transform="translate(-255 44)"/><path class="cls-2" d="M889.71,82l-13.29,19.47" transform="translate(-255 44)"/><path class="cls-2" d="M906,93.76l-14.41,18.72" transform="translate(-255 44)"/><path class="cls-2" d="M921.53,106.3l-15.54,18" transform="translate(-255 44)"/><path class="cls-2" d="M936.32,119.78l-16.48,17" transform="translate(-255 44)"/><path class="cls-2" d="M950.36,134l-17.22,16.1" transform="translate(-255 44)"/><path class="cls-2" d="M963.65,149l-18.16,15.17" transform="translate(-255 44)"/><path class="cls-2" d="M976,164.71l-18.9,14" transform="translate(-255 44)"/><path class="cls-2" d="M987.61,181,968,194.1" transform="translate(-255 44)"/><path class="cls-2" d="M998.28,198l-20.41,12" transform="translate(-255 44)"/><path class="cls-2" d="M1007.83,215.43l-21,10.86" transform="translate(-255 44)"/><path class="cls-2" d="M1016.62,233.4l-21.52,9.74" transform="translate(-255 44)"/><path class="cls-2" d="M1024.3,251.94l-22.09,8.61" transform="translate(-255 44)"/><path class="cls-2" d="M1031,270.84l-22.47,7.3" transform="translate(-255 44)"/><path class="cls-2" d="M1036.65,289.94l-22.83,6.17" transform="translate(-255 44)"/><path class="cls-2" d="M1041.33,309.4l-23.21,4.87" transform="translate(-255 44)"/><path class="cls-2" d="M1044.89,329.06l-23.4,3.56" transform="translate(-255 44)"/><path class="cls-2" d="M1047.32,348.9l-23.58,2.43" transform="translate(-255 44)"/><path class="cls-2" d="M1048.63,368.93l-23.58.94" transform="translate(-255 44)"/><path class="cls-2" d="M1049,389l-23.59-.37" transform="translate(-255 44)"/><path class="cls-2" d="M1048.26,409l-23.59-1.69" transform="translate(-255 44)"/><path class="cls-2" d="M1046.2,428.83,1022.8,426" transform="translate(-255 44)"/><path class="cls-2" d="M1043.2,448.67,1020,444.56" transform="translate(-255 44)"/><path class="cls-2" d="M1039.27,468.33l-23-5.43" transform="translate(-255 44)"/><path class="cls-2" d="M1034,487.61l-22.65-6.74" transform="translate(-255 44)"/><path class="cls-2" d="M1027.85,506.7l-22.27-8.05" transform="translate(-255 44)"/><path class="cls-2" d="M1020.74,525.23l-21.9-9" transform="translate(-255 44)"/><path class="cls-2" d="M1012.5,543.58l-21.34-10.3" transform="translate(-255 44)"/><path class="cls-2" d="M1003.33,561.36l-20.78-11.42" transform="translate(-255 44)"/><path class="cls-2" d="M993.22,578.59l-20-12.55" transform="translate(-255 44)"/><path class="cls-2" d="M982,595.24l-19.28-13.66" transform="translate(-255 44)"/><path class="cls-2" d="M970,611.16l-18.53-14.61" transform="translate(-255 44)"/><path class="cls-2" d="M957.28,626.51,939.5,611" transform="translate(-255 44)"/><path class="cls-2" d="M943.62,641.29l-16.85-16.66" transform="translate(-255 44)"/><path class="cls-2" d="M929.21,655.15l-15.92-17.6" transform="translate(-255 44)"/><path class="cls-2" d="M914,668.06l-15-18.16" transform="translate(-255 44)"/><path class="cls-2" d="M898.13,680.42l-13.85-19.1" transform="translate(-255 44)"/><path class="cls-2" d="M881.66,691.65l-12.73-19.84" transform="translate(-255 44)"/><path class="cls-2" d="M864.62,702.13l-11.79-20.59" transform="translate(-255 44)"/><path class="cls-2" d="M847,711.49l-10.67-21.15" transform="translate(-255 44)"/><path class="cls-2" d="M828.87,720.1l-9.36-21.71" transform="translate(-255 44)"/><path class="cls-2" d="M810.34,727.59l-8.24-22.28" transform="translate(-255 44)"/><path class="cls-2" d="M791.43,734l-7.11-22.65" transform="translate(-255 44)"/><path class="cls-2" d="M772.15,739.38l-5.8-22.84" transform="translate(-255 44)"/><path class="cls-2" d="M752.5,743.69,748,720.47" transform="translate(-255 44)"/><path class="cls-2" d="M732.84,747.06l-3.18-23.4" transform="translate(-255 44)"/><path class="cls-2" d="M713,749.11l-2.06-23.39" transform="translate(-255 44)"/><path class="cls-2" d="M693,750.24l-.75-23.59" transform="translate(-255 44)"/><path class="cls-2" d="M672.94,750.24l.56-23.59" transform="translate(-255 44)"/><path class="cls-2" d="M652.91,749.3,655,725.72" transform="translate(-255 44)"/><path class="cls-2" d="M633.07,747.06l3.18-23.4" transform="translate(-255 44)"/><path class="cls-2" d="M613.42,743.87l4.49-23.21" transform="translate(-255 44)"/><path class="cls-2" d="M593.76,739.57l5.8-23" transform="translate(-255 44)"/><path class="cls-2" d="M574.48,734.14l7.11-22.65" transform="translate(-255 44)"/><path class="cls-2" d="M555.57,727.78l8.24-22.28" transform="translate(-255 44)"/><path class="cls-2" d="M537,720.29l9.36-21.72" transform="translate(-255 44)"/><path class="cls-2" d="M518.88,711.86l10.49-21.15" transform="translate(-255 44)"/><path class="cls-2" d="M501.29,702.32l11.6-20.41" transform="translate(-255 44)"/><path class="cls-2" d="M484.07,692,497,672.18" transform="translate(-255 44)"/><path class="cls-2" d="M467.59,680.79l13.86-19.28" transform="translate(-255 44)"/><path class="cls-2" d="M451.68,668.44l15-18.35" transform="translate(-255 44)"/><path class="cls-2" d="M436.52,655.52l15.91-17.6" transform="translate(-255 44)"/><path class="cls-2" d="M422.11,641.67,439,625" transform="translate(-255 44)"/><path class="cls-2" d="M408.44,627.07l17.78-15.73" transform="translate(-255 44)"/><path class="cls-2" d="M395.52,611.72l18.54-14.79" transform="translate(-255 44)"/><path class="cls-2" d="M383.54,595.62,402.82,582" transform="translate(-255 44)"/><path class="cls-2" d="M372.5,579l20-12.54" transform="translate(-255 44)"/><path class="cls-2" d="M362.39,561.74,383,550.32" transform="translate(-255 44)"/><path class="cls-2" d="M353,544.14l21.34-10.48" transform="translate(-255 44)"/><path class="cls-2" d="M344.8,525.8l21.9-9.17" transform="translate(-255 44)"/><path class="cls-2" d="M337.68,507.27l22.28-8" transform="translate(-255 44)"/><path class="cls-2" d="M331.32,488.17l22.84-6.74" transform="translate(-255 44)"/><path class="cls-2" d="M326.26,468.89l23-5.62" transform="translate(-255 44)"/><path class="cls-2" d="M322.15,449.24l23.21-4.12" transform="translate(-255 44)"/><path class="cls-2" d="M319.15,429.39l23.4-2.8" transform="translate(-255 44)"/><path class="cls-2" d="M317.28,409.55l23.59-1.68" transform="translate(-255 44)"/><path class="cls-2" d="M316.34,389.52l23.59-.37" transform="translate(-255 44)"/><path class="cls-2" d="M316.53,369.49l23.77.94" transform="translate(-255 44)"/><path class="cls-2" d="M318,349.65l23.4,2.25" transform="translate(-255 44)"/><path class="cls-2" d="M320.46,329.81l23.21,3.37" transform="translate(-255 44)"/><path class="cls-2" d="M323.83,310,347,314.83" transform="translate(-255 44)"/><path class="cls-2" d="M328.51,290.5l22.84,6.18" transform="translate(-255 44)"/><path class="cls-2" d="M334.13,271.4l22.46,7.31" transform="translate(-255 44)"/><path class="cls-2" d="M340.87,252.5l21.9,8.42" transform="translate(-255 44)"/><path class="cls-2" d="M348.54,234l21.53,9.73" transform="translate(-255 44)"/><path class="cls-2" d="M357.15,216l21,10.85" transform="translate(-255 44)"/><path class="cls-2" d="M366.89,198.4l20.4,12" transform="translate(-255 44)"/><path class="cls-2" d="M377.37,181.55l19.84,13.11" transform="translate(-255 44)"/><path class="cls-2" d="M389,165.08l18.91,14.23" transform="translate(-255 44)"/><path class="cls-2" d="M401.33,149.36l18.16,15.16" transform="translate(-255 44)"/><path class="cls-2" d="M414.62,134.38l17.22,16.1" transform="translate(-255 44)"/><path class="cls-2" d="M428.66,120.15l16.28,17" transform="translate(-255 44)"/><path class="cls-2" d="M443.45,106.68l15.34,18" transform="translate(-255 44)"/><path class="cls-2" d="M458.79,94.14l14.61,18.53" transform="translate(-255 44)"/><path class="cls-2" d="M475.08,82.34l13.29,19.47" transform="translate(-255 44)"/><path class="cls-2" d="M491.93,71.3,504.1,91.51" transform="translate(-255 44)"/><path class="cls-2" d="M509.15,61.38l11.23,20.78" transform="translate(-255 44)"/><path class="cls-2" d="M527.12,52.39,537,73.92" transform="translate(-255 44)"/><path class="cls-2" d="M545.46,44.53l8.8,21.9" transform="translate(-255 44)"/><path class="cls-2" d="M564.18,37.42l7.68,22.46" transform="translate(-255 44)"/><path class="cls-2" d="M583.28,31.43l6.36,22.83" transform="translate(-255 44)"/><path class="cls-2" d="M602.74,26.56l5.06,23" transform="translate(-255 44)"/><path class="cls-2" d="M622.4,22.82,626.14,46" transform="translate(-255 44)"/><path class="cls-2" d="M642.05,20l2.62,23.4" transform="translate(-255 44)"/><path class="cls-2" d="M662.08,18.32l1.31,23.59" transform="translate(-255 44)"/></g><circle class="cls-3" cx="428" cy="428" r="384.16"/><circle class="cls-4" cx="428" cy="428" r="297.47"/><circle class="cls-5" cx="428" cy="428" r="428"/></svg>