<svg id="Слой_1" data-name="Слой 1" xmlns="http://www.w3.org/2000/svg" viewBox="0 0 192 192"><defs><style>.cls-1{fill:#3d3667;}.cls-2{fill:#100b2e;fill-rule:evenodd;}</style></defs><title>default-avatar</title><rect class="cls-1" width="192" height="192" rx="32"/><path class="cls-2" d="M683,336.39A15.58,15.58,0,1,0,698.58,352,15.57,15.57,0,0,0,683,336.39ZM657,352a26,26,0,1,1,26,26A26,26,0,0,1,657,352Z" transform="translate(-587 -288)"/><path class="cls-2" d="M634.77,419.57c0-20.95,18.4-37.92,41.09-37.92h14.28c22.69,0,41.09,17,41.09,37.92,0,11.83-10.4,21.43-23.22,21.43H658C645.17,441,634.77,431.4,634.77,419.57Zm41.09-28c-16.77,0-30.37,12.55-30.37,28,0,6.37,5.6,11.54,12.5,11.54h50c6.9,0,12.5-5.17,12.5-11.54,0-15.48-13.6-28-30.37-28Z" transform="translate(-587 -288)"/></svg>