<svg id="Слой_1" data-name="Слой 1" xmlns="http://www.w3.org/2000/svg" xmlns:xlink="http://www.w3.org/1999/xlink" viewBox="0 0 23.5 17.31"><defs><style>.cls-1,.cls-3{fill:none;}.cls-2{clip-path:url(#clip-path);}.cls-3{stroke:#ffe500;stroke-linejoin:round;stroke-width:1.5px;}</style><clipPath id="clip-path" transform="translate(-671.25 -375.25)"><rect class="cls-1" x="671" y="372" width="24" height="24"/></clipPath></defs><title>discord</title><g class="cls-2"><path class="cls-3" d="M679.21,376.09a9.43,9.43,0,0,0-2.9.93,8.82,8.82,0,0,0-1.57,1,5.34,5.34,0,0,0-.4.78,25.89,25.89,0,0,0-2.31,9.49l0,.69.3.37a7.12,7.12,0,0,0,5.14,2.45h.31l.61-.75a4.16,4.16,0,0,0,.57-.79,1.66,1.66,0,0,0-.37-.14,7.24,7.24,0,0,1-1.55-.81,6.69,6.69,0,0,1-1.23-1.15c-.06-.12-.06-.12.05,0a14.66,14.66,0,0,0,5.23,1.91,17.12,17.12,0,0,0,3.36.09,13.44,13.44,0,0,0,3-.65,13.15,13.15,0,0,0,2.65-1.22c.13-.08.25-.14.26-.12a5.62,5.62,0,0,1-1.26,1.21,8.49,8.49,0,0,1-1.7.86,1.78,1.78,0,0,0-.31.12,9.39,9.39,0,0,0,1.22,1.51c.19,0,1.29-.15,1.56-.21a7.71,7.71,0,0,0,2.59-1.13,7.08,7.08,0,0,0,1.42-1.34l.14-.21-.06-1a23.93,23.93,0,0,0-1-5.74,17.94,17.94,0,0,0-1.75-4.25,9.7,9.7,0,0,0-4.66-1.88L686,376l-.14.14-.15.15.53.18a13.93,13.93,0,0,1,3.85,2c.14.11.23.19.21.19l-.55-.26a15.34,15.34,0,0,0-7.63-1.55,15.61,15.61,0,0,0-6.26,1.54c-.31.15-.59.27-.6.27a5.41,5.41,0,0,1,.85-.64,15.53,15.53,0,0,1,3.4-1.59l.58-.2s0-.06-.07-.11S679.86,376,679.21,376.09Zm1,7.06a2,2,0,0,1,1.16,1.15,3,3,0,0,1,0,1.45,2,2,0,0,1-1.08,1.29,1.34,1.34,0,0,1-.76.15,1.28,1.28,0,0,1-.76-.16,2.14,2.14,0,0,1-1.13-2.27,2,2,0,0,1,.53-1.12A1.85,1.85,0,0,1,680.18,383.15Zm6.81,0a2.18,2.18,0,0,1,.1,3.92,1.29,1.29,0,0,1-.74.14,1.36,1.36,0,0,1-.76-.14,2.18,2.18,0,0,1-1.15-2.25A1.94,1.94,0,0,1,687,383.13Z" transform="translate(-671.25 -375.25)"/></g></svg>