<svg id="Слой_1" data-name="Слой 1" xmlns="http://www.w3.org/2000/svg" xmlns:xlink="http://www.w3.org/1999/xlink" viewBox="0 0 23.5 23.36"><defs><style>.cls-1,.cls-3{fill:none;}.cls-2{clip-path:url(#clip-path);}.cls-3{stroke:#ffe500;stroke-linejoin:round;stroke-width:1.5px;}</style><clipPath id="clip-path" transform="translate(-671.25 -372.25)"><rect class="cls-1" x="671" y="372" width="24" height="24"/></clipPath></defs><title>facebook</title><g class="cls-2"><path class="cls-3" d="M682,373a11,11,0,0,0-3.3.84,11.73,11.73,0,0,0-2.26,1.31,12.11,12.11,0,0,0-2.2,2.21,11.66,11.66,0,0,0-1.31,2.25,11,11,0,0,0-.78,2.77,12,12,0,0,0,.1,3.73,11,11,0,0,0,8.71,8.66l.29.06s0-.18,0-3.82v-3.85h-2.78v-.06s0-.75,0-1.6V384h2.79v-1.35c0-1,0-1.43,0-1.7a3.84,3.84,0,0,1,1.62-3,4.12,4.12,0,0,1,1.6-.62,10.36,10.36,0,0,1,1.81,0c.6,0,1.4.14,1.57.18s.05.1.05,1.37v1.36h-.89a8.73,8.73,0,0,0-1,.06,1.45,1.45,0,0,0-1.18,1.05,4.78,4.78,0,0,0-.07,1.41V384h1.53c.84,0,1.53,0,1.53,0a1.5,1.5,0,0,1,0,.18c0,.09-.08.5-.14.9-.11.72-.14.88-.24,1.61,0,.21-.07.41-.07.44l0,.06h-2.56V391a26.84,26.84,0,0,0,0,3.82l.3-.06a11,11,0,0,0,8.81-9.3A7.83,7.83,0,0,0,694,384a9.29,9.29,0,0,0-.11-1.63,11,11,0,0,0-7.56-8.89,10.63,10.63,0,0,0-2.22-.46A17.33,17.33,0,0,0,682,373Z" transform="translate(-671.25 -372.25)"/></g></svg>