<svg id="Слой_1" data-name="Слой 1" xmlns="http://www.w3.org/2000/svg" viewBox="0 0 169.18 226.47"><defs><style>.cls-1{fill:#7748ff;}</style></defs><title>function-new-icon-stream</title><path class="cls-1" d="M625.92,355.33c-2.91,12.12-6.92,22.83-6.48,34.31.09,2.49,0,5,.29,7.48.58,4.3,2.48,8,7.37,7.95s7-3.73,7-8.16c0-10.64-1.57-21.29-.16-31.92,2.71-20.45,14.5-36.18,27.07-51.46,9.64-11.73,19.3-23.37,14.37-40.36-.88-3,1.52-2.25,3-1.42,27.56,15.16,48,38.89,38.83,74.94a87.69,87.69,0,0,0-2.91,21.23c0,7.26,2.78,12.55,9.9,14.24,7.81,1.87,12.79-2.78,15.72-9.32,1.58-3.56,1.74-7.74,2.64-11.61a19.87,19.87,0,0,1,1.27-3.07,12.22,12.22,0,0,1,2.85,1.63c28.43,28.49,28.67,82.62.74,112.39-11,11.75-23.62,20.67-39.59,24.5,4.68-4.63,9.75-8.73,13.4-14.32,11.49-17.64,8.72-38.34-6.94-49.43-1.71-1.21-3.68-3.52-5.65-2.28s0,3.67.3,5.54c1.19,7.58.78,14.78-5.45,20.22-5.15,4.5-11.23,5.1-17.32,2.27-8.12-3.78-11.37-10.88-11.8-19.41-.93-18.57,8.13-34.43,14.16-51.1,3.6-9.95,7.33-19.86,10.38-30.05-17.33,27.33-40.58,50.9-51.23,82.23-7.28,21.41-2.49,38.07,14.81,52.81,1.49,1.27,3.25,2.21,6.29,4.26-17.52,1.19-50.12-17-63.09-47.81-15.54-36.93-2-76.22,20.24-94.28" transform="translate(-599 -271)"/></svg>