<svg id="Слой_1" data-name="Слой 1" xmlns="http://www.w3.org/2000/svg" viewBox="0 0 291.61 181.35"><defs><style>.cls-1{fill:#7748ff;}</style></defs><title>function-new-icon-manage</title><path class="cls-1" d="M828.2,428.8c-.8-17.6-4-36.8-8.4-55.2-4.4-17.6-10-33.2-16.8-45.2-22-39.6-47.6-32.8-78-25.2-12.4,3.2-25.2,6.4-39.6,7.6h-6c-14-1.2-26.8-4.4-39.2-7.6-30.4-8-56-14.4-78,25.2-6.8,12-12.4,28-16.8,45.2a275.91,275.91,0,0,0-8.4,55.2c-.8,18.4.8,30.8,4,38.4,2.4,5.6,5.6,8.8,9.6,10,4.4,1.6,10,.4,16.4-2,13.6-5.2,30-18,46.4-33.2,15.6-14.4,42.4-22,69.2-22s53.6,7.6,68.8,22.8c16,15.2,32.4,27.6,46.4,33.2,6.4,2.4,12,3.2,16.4,2,4-1.2,7.2-4.4,9.6-10C827.4,459.6,829,447.2,828.2,428.8ZM635.8,372.4a8.14,8.14,0,0,1-6,2.4h-5.6a7.59,7.59,0,0,0-7.6,7.6v5.2a8.4,8.4,0,1,1-16.8,0V382a7.59,7.59,0,0,0-7.6-7.6h-5.6a8.2,8.2,0,0,1-6-14l.4-.4a9.56,9.56,0,0,1,5.6-2h5.6a7.59,7.59,0,0,0,7.6-7.6v-5.6a8.49,8.49,0,0,1,14.4-6l.4.4a9.56,9.56,0,0,1,2,5.6v5.6a7.59,7.59,0,0,0,7.6,7.6h5.6a8.49,8.49,0,0,1,6,14.4Zm97.4,3.4a9.4,9.4,0,1,1,9.4-9.4A9.39,9.39,0,0,1,733.2,375.8Zm19,19a9.4,9.4,0,1,1,9.4-9.4A9.39,9.39,0,0,1,752.2,394.8Zm0-38.1a9.4,9.4,0,1,1,9.4-9.4A9.39,9.39,0,0,1,752.2,356.7Zm19,19.1a9.4,9.4,0,1,1,9.4-9.4A9.39,9.39,0,0,1,771.2,375.8Z" transform="translate(-536.8 -297.2)"/></svg>