<svg id="Слой_1" data-name="Слой 1" xmlns="http://www.w3.org/2000/svg" viewBox="0 0 512 488.9"><defs><style>.cls-1{fill:#7748ff;}</style></defs><title>function-new-icon-rating</title><path class="cls-1" d="M517.66,538.26l-24.86-35-24.86,35L427,551.09l25.58,34.45-.45,42.91,40.67-13.68,40.67,13.68L533,585.54l25.57-34.45Z" transform="translate(-427 -139.55)"/><path class="cls-1" d="M492.8,323.73l-24.86,35L427,371.53,452.58,406l-.45,42.91,40.67-13.68,40.67,13.68L533,406l25.57-34.45L517.66,358.7Z" transform="translate(-427 -139.55)"/><path class="cls-1" d="M492.8,139.55l-24.86,35L427,187.36l25.58,34.45-.45,42.9L492.8,251l40.67,13.68-.44-42.9,25.57-34.45-40.94-12.84Z" transform="translate(-427 -139.55)"/><path class="cls-1" d="M597.56,548.1h78.61v80.35H597.56Z" transform="translate(-427 -139.55)"/><path class="cls-1" d="M898.82,548.1H706.17v80.35H898.82a40.18,40.18,0,1,0,0-80.35Z" transform="translate(-427 -139.55)"/><path class="cls-1" d="M597.56,368H743.68v80.35H597.56Z" transform="translate(-427 -139.55)"/><path class="cls-1" d="M898.82,368H773.68v80.35H898.82a40.18,40.18,0,1,0,0-80.35Z" transform="translate(-427 -139.55)"/><path class="cls-1" d="M597.56,187.13h213v80.36h-213Z" transform="translate(-427 -139.55)"/><path class="cls-1" d="M939,227.31a40.23,40.23,0,0,0-40.18-40.18h-58.3v80.36h58.3A40.23,40.23,0,0,0,939,227.31Z" transform="translate(-427 -139.55)"/></svg>