<svg id="Слой_1" data-name="Слой 1" xmlns="http://www.w3.org/2000/svg" viewBox="0 0 22 22"><defs><style>.cls-1{fill:#100b2e;stroke:#ff0052;stroke-width:2px;}.cls-2{fill:#ff0052;}</style></defs><title>icon-captain</title><circle class="cls-1" cx="11" cy="11" r="10"/><path class="cls-2" d="M682.39,379.09a.65.65,0,0,1,1.22,0l.82,2.5a.65.65,0,0,0,.61.43h2.66a.62.62,0,0,1,.38,1.13l-2.16,1.54a.63.63,0,0,0-.23.71l.82,2.49a.63.63,0,0,1-1,.7l-2.16-1.54a.63.63,0,0,0-.74,0l-2.16,1.54a.63.63,0,0,1-1-.7l.82-2.49a.63.63,0,0,0-.23-.71l-2.16-1.54a.62.62,0,0,1,.38-1.13H681a.65.65,0,0,0,.61-.43Z" transform="translate(-672 -373)"/></svg>