<svg id="Слой_1" data-name="Слой 1" xmlns="http://www.w3.org/2000/svg" viewBox="0 0 22.67 21.2"><defs><style>.cls-1,.cls-2{fill:none;stroke:#00fff0;stroke-width:2px;}.cls-1{stroke-linecap:round;stroke-linejoin:round;}</style></defs><title>icon-game-tournament</title><path class="cls-1" d="M676.21,374.4H689v7.68a6.41,6.41,0,0,1-6.4,6.4h0a6.4,6.4,0,0,1-6.4-6.4Z" transform="translate(-671.27 -373.4)"/><path class="cls-1" d="M689,377h1.3a2.42,2.42,0,0,1,2.57,2.83c-.42,1.8-1.43,3.86-3.87,4.21" transform="translate(-671.27 -373.4)"/><path class="cls-1" d="M676.21,377H674.9a2.42,2.42,0,0,0-2.57,2.83c.42,1.8,1.44,3.86,3.88,4.21" transform="translate(-671.27 -373.4)"/><path class="cls-2" d="M682.61,388.48v5.12" transform="translate(-671.27 -373.4)"/><path class="cls-1" d="M678.77,393.6h7.68" transform="translate(-671.27 -373.4)"/></svg>