<svg id="Слой_1" data-name="Слой 1" xmlns="http://www.w3.org/2000/svg" viewBox="0 0 23.97 23.97"><defs><style>.cls-1{fill:none;stroke:#00da5b;stroke-width:2px;}.cls-2{fill:#00da5b;}</style></defs><title>icon-custom</title><path class="cls-1" d="M680.11,377.65a6.94,6.94,0,0,1,11.38-2.39h0a6.93,6.93,0,0,1-2.4,11.37l-5.51,2.14a2.69,2.69,0,0,1-2.88-.6l-2.12-2.12a2.7,2.7,0,0,1-.61-2.89Z" transform="translate(-670.55 -372.22)"/><path class="cls-1" d="M679.64,387.11l-2.74,2.73" transform="translate(-670.55 -372.22)"/><path class="cls-2" d="M673.87,392.88l1,.19.29-1.47-1.47.3Zm3.26-3.27.71-.7Zm-3.46,2.29a.94.94,0,0,1-.85-.26l-1.41,1.41a2.93,2.93,0,0,0,2.65.81Zm-.85-.26a.94.94,0,0,1,0-1.32l-1.41-1.41a2.92,2.92,0,0,0,0,4.14Zm0-1.32a1,1,0,0,1,.57-.27l-.18-2a2.87,2.87,0,0,0-1.8.85Zm3.86,3.11a.91.91,0,0,1-.26.49l1.42,1.41a2.92,2.92,0,0,0,.81-1.55Zm-.26.49a.94.94,0,0,1-1.32,0l-1.41,1.41a2.93,2.93,0,0,0,4.15,0Zm-1.32,0a.93.93,0,0,1-.25-.85l-2-.39a2.91,2.91,0,0,0,.8,2.65Zm1.37-3.51h.1l0,0a.61.61,0,0,1-.12-.09l1.42-1.41a1.9,1.9,0,0,0-1.23-.49Zm-.05-.09a.15.15,0,0,1,0-.08s0,0,0,0l2-.43a1.92,1.92,0,0,0-.49-.93Zm2.23,3.46a10.47,10.47,0,0,0-.32-3.94l-2,.43a8.81,8.81,0,0,1,.31,3.16Zm-5.26-3.73a4.86,4.86,0,0,1,1.36.11c.49.08,1.12.21,1.72.25l.14-2c-.46,0-.92-.13-1.52-.24a7.6,7.6,0,0,0-1.88-.12Z" transform="translate(-670.55 -372.22)"/></svg>