<svg id="Слой_1" data-name="Слой 1" xmlns="http://www.w3.org/2000/svg" xmlns:xlink="http://www.w3.org/1999/xlink" viewBox="0 0 55.19 46.17"><defs><style>.cls-1,.cls-2,.cls-4{fill:none;}.cls-1,.cls-2{stroke:#ffe500;stroke-width:2px;}.cls-1,.cls-4{stroke-linecap:round;}.cls-1{stroke-linejoin:round;}.cls-3{fill:url(#Безымянный_градиент_3);}.cls-4{stroke:#000;stroke-width:4px;}</style><linearGradient id="Безымянный_градиент_3" x1="650.49" y1="393.92" x2="694.7" y2="364.07" gradientTransform="matrix(1, 0, 0, -1, -652, 408)" gradientUnits="userSpaceOnUse"><stop offset="0" stop-color="#fff" stop-opacity="0.25"/><stop offset="1" stop-color="#fff" stop-opacity="0.01"/></linearGradient></defs><title>icon-playing-3</title><path class="cls-1" d="M677.16,363h22v13.2a11,11,0,0,1-11,11h0a11,11,0,0,1-11-11Z" transform="translate(-652 -362)"/><path class="cls-1" d="M699.16,367.4h4.3a2.61,2.61,0,0,1,2.71,2.84c-.4,3.34-1.85,8.52-7,9.26" transform="translate(-652 -362)"/><path class="cls-1" d="M677.16,367.4h-4.3a2.6,2.6,0,0,0-2.71,2.84c.39,3.34,1.85,8.52,7,9.26" transform="translate(-652 -362)"/><path class="cls-2" d="M688.16,387.2V396" transform="translate(-652 -362)"/><path class="cls-1" d="M681.56,396h13.2" transform="translate(-652 -362)"/><rect class="cls-3" y="11.84" width="41.19" height="34.32" rx="12"/><path class="cls-4" d="M666.91,391h11.16" transform="translate(-652 -362)"/><path class="cls-4" d="M672.49,396.58V385.43" transform="translate(-652 -362)"/></svg>