<svg id="Слой_1" data-name="Слой 1" style="fill:#ffffff" xmlns="http://www.w3.org/2000/svg" viewBox="0 0 512 512"><title>slider-item-adv-custom</title><path d="M602.44,475.68c-23.85-23.85-63.35-34.37-99.87-19a91.84,91.84,0,0,0-53.84,82.69c0,39.44-6.87,71.15-13.65,82.09L422,642.57l24.76,1.77c6.06.44,12.42.66,19,.66,48.19,0,107-12.1,138.72-41.25C635.64,574.68,639.25,512.49,602.44,475.68Z" transform="translate(-422 -133)"/><path d="M666.26,412.14a175.78,175.78,0,0,0-48.74-34.54c-15.17,15.66-29.93,31.51-44.27,47.3a114.57,114.57,0,0,1,50.41,29.6,117.9,117.9,0,0,1,30.17,51.85c15.62-14.15,31.32-28.71,47.1-43.89A159.32,159.32,0,0,0,666.26,412.14Z" transform="translate(-422 -133)"/><path d="M927.32,139.68c-11.24-11.22-29.71-16.48-119.53,53.39-53.44,41.57-108.73,102.36-166.9,160.53l-1.18,1.18-.05,0-.34.34a206.38,206.38,0,0,1,48,35.68,188.48,188.48,0,0,1,36.38,49.79l.41-.41-.06-.1,1.68-1.67c58.14-58.14,106.6-125.73,148.17-179.18C943.73,169.44,938.59,150.94,927.32,139.68Z" transform="translate(-422 -133)"/></svg>