<svg id="Слой_1" data-name="Слой 1" xmlns="http://www.w3.org/2000/svg" xmlns:xlink="http://www.w3.org/1999/xlink" viewBox="0 0 187.28 187.13"><defs><style>.cls-1{fill:none;}.cls-2{clip-path:url(#clip-path);}.cls-3{fill:#fff;}</style><clipPath id="clip-path" transform="translate(-589 -291)"><rect class="cls-1" x="589" y="291" width="187.29" height="187.13"/></clipPath></defs><title>slider-item-adv-calendar</title><g class="cls-2"><path class="cls-3" d="M589.48,356.36c-1.35-10.87-.21-20.79,7.69-28.95s18.12-9.08,29.33-8.5c0-5.79,0-11.07,0-16.36,0-7.22,3.64-11.59,9.5-11.55s9.46,4.44,9.55,11.65c.06,5.12,0,10.24,0,15.79h74.15c0-5.31-.06-10.57,0-15.82.11-7.3,3.69-11.6,9.53-11.62s9.41,4.23,9.46,11.56c0,4.83.06,9.66.11,14.5a9.23,9.23,0,0,0,.59,1.73c13-.85,25.26,1.53,32.86,14.16,4.38,7.28,4.14,15.16,3.67,23.41Z" transform="translate(-589 -291)"/><path class="cls-3" d="M776.2,419.78c0-14.64,0-29.27,0-44.44H589.37c-.14,1.84-.44,50.09-.28,72.9.12,17.95,11.87,29.7,29.83,29.76q63.69.21,127.39.08c17.75,0,29.74-12.1,29.94-29.83.1-9.49,0-19,0-28.47M668.3,447.32c0,2.93-.14,4.1-.79,5.4a6.23,6.23,0,0,1-10.51,0c-.65-1.3-.79-2.47-.79-5.4V407.18l-5.44,5.45c-1.95,1.95-2.75,2.56-4,3a5.85,5.85,0,0,1-7-6.93c.41-1.3,1-2.14,3-4.09l12.84-12.84a9,9,0,0,1,6.51-3.11,6.19,6.19,0,0,1,4.47,1.72c1.62,1.67,1.76,3.81,1.76,6.14Zm54.84-2.65c-1.16.61-2.23.7-5,.7H716.4v1.95c0,2.93-.14,4.1-.79,5.4a6.23,6.23,0,0,1-10.51,0c-.65-1.3-.79-2.47-.79-5.4v-1.95H687.1c-3,0-4.93-.23-6.51-1.58a6,6,0,0,1-2.05-4.56,11.67,11.67,0,0,1,1.63-5.07L700.4,393.6c1.21-2.41,1.81-3.3,2.88-4.09a4.87,4.87,0,0,1,2.89-.88c2.93,0,5.9,2.32,5.9,5.3,0,1.35-.32,2.32-1.53,4.74l-17.81,35.72h11.58v-5.53c0-2.93.14-4.09.79-5.4a6.23,6.23,0,0,1,10.51,0c.65,1.31.79,2.47.79,5.4v5.53h1.77c2.74,0,3.81.1,5,.7a5.65,5.65,0,0,1,0,9.58" transform="translate(-589 -291)"/></g></svg>