<svg id="Слой_1" data-name="Слой 1" xmlns="http://www.w3.org/2000/svg" viewBox="0 0 72 72"><defs><style>.cls-1{fill:#403725;stroke:#282129;}.cls-2,.cls-3{fill:#282129;}.cls-3,.cls-4{stroke:#ffe500;stroke-width:2px;}.cls-4{fill:none;stroke-linejoin:round;}</style></defs><title>plan-premium</title><rect class="cls-1" x="0.5" y="0.5" width="71" height="71" rx="17.5"/><path class="cls-2" d="M667.32,369a2,2,0,0,1,2-2H696.4a2,2,0,0,1,2,2v22.17a2,2,0,0,1-.79,1.59l-13.54,10.32a2,2,0,0,1-2.42,0l-13.54-10.32a2,2,0,0,1-.79-1.59Z" transform="translate(-647 -348)"/><path class="cls-3" d="M671.28,372a1,1,0,0,1,1-1h21.16a1,1,0,0,1,1,1v18.17a1,1,0,0,1-.38.78l-10.58,8.36a1,1,0,0,1-1.24,0l-10.58-8.36a1,1,0,0,1-.38-.78Z" transform="translate(-647 -348)"/><path class="cls-4" d="M676.92,378l2.64,3.62,3.3-3.62,3.3,3.62L688.8,378v9.24H676.92Z" transform="translate(-647 -348)"/></svg>