<svg xmlns="http://www.w3.org/2000/svg">

    <symbol id="logo" fill="none" xmlns="http://www.w3.org/2000/svg" viewBox="0 0 154 17"><path d="M21.423 15.927V1.057h3.425v14.87h-3.425zM43.804 15.494c-.447.172-.912.322-1.397.449-.478.127-.989.224-1.518.284-.53.067-1.103.097-1.716.097-1.294 0-2.48-.165-3.565-.486-1.084-.321-2.022-.815-2.806-1.465a6.593 6.593 0 01-1.83-2.445c-.434-.98-.658-2.116-.658-3.424 0-1.308.217-2.444.657-3.424.44-.979 1.046-1.794 1.83-2.444.785-.65 1.723-1.144 2.807-1.466C36.692.85 37.885.685 39.173.685c.613 0 1.18.03 1.716.097.53.067 1.04.157 1.518.284.478.127.944.276 1.397.448.446.172.892.367 1.339.583v3.611c-.35-.224-.72-.448-1.11-.665a10.077 10.077 0 00-1.282-.598 9.457 9.457 0 00-1.543-.434 9.727 9.727 0 00-1.894-.164c-1.078 0-1.971.127-2.685.389-.708.261-1.276.605-1.703 1.039-.428.433-.721.927-.893 1.487a5.865 5.865 0 00-.262 1.735c0 .396.038.785.109 1.173a4.006 4.006 0 001.046 2.041c.274.292.618.539 1.033.748.414.21.893.374 1.448.493.548.12 1.186.18 1.907.18.701 0 1.333-.053 1.894-.157a9.658 9.658 0 001.543-.419 8.351 8.351 0 001.282-.59c.39-.225.76-.449 1.11-.673v3.61c-.44.217-.887.412-1.34.591zM79.985.677c1.243 0 2.398.127 3.47.374a16.94 16.94 0 012.94.956v3.634c-.351-.232-.747-.456-1.187-.673-.44-.217-.918-.404-1.435-.576a12.847 12.847 0 00-1.664-.403 10.699 10.699 0 00-1.863-.15c-.81 0-1.518.067-2.124.202a5.961 5.961 0 00-1.55.553c-.433.232-.784.5-1.058.807a4.01 4.01 0 00-.657.98c-.16.344-.268.703-.332 1.061-.064.36-.095.71-.095 1.047 0 .299.025.62.076.964s.153.696.293 1.04c.147.343.345.68.606.994.262.314.594.598 1.008.845.415.246.919.44 1.499.59.58.15 1.282.224 2.085.224.409 0 .76-.015 1.06-.045.299-.03.573-.067.828-.12.249-.051.485-.111.702-.186.217-.075.446-.15.676-.224v-1.794h-3.84v-3.26h7.265v7.596c-.453.179-.963.343-1.53.493-.562.15-1.142.277-1.748.381-.6.105-1.2.187-1.805.247-.606.06-1.174.09-1.71.09-.829 0-1.626-.068-2.391-.195a10.016 10.016 0 01-2.137-.598 7.795 7.795 0 01-1.811-1.032 6.277 6.277 0 01-1.397-1.495 6.994 6.994 0 01-.893-1.988c-.21-.748-.319-1.585-.319-2.52 0-.92.109-1.756.332-2.511.223-.748.53-1.413.925-1.989a6.414 6.414 0 011.428-1.495 7.964 7.964 0 011.837-1.032c.67-.269 1.384-.47 2.143-.598a14.756 14.756 0 012.373-.194zM100.865 4.736L96.12 15.927H92.3l6.64-14.87h3.819l6.64 14.87h-3.821l-4.713-11.191zM131.364 15.927V5.483l-4.706 10.444h-3.285l-4.707-10.444v10.444h-3.425V1.057h4.656l5.121 11.252 5.122-11.251h4.637v14.869h-3.413zM144.542 12.75v-2.9h8.846V6.68h-12.361v9.247H154V12.75h-9.458zm9.324-8.523v-3.17h-12.839v3.17h12.839zM6.512 8.19l8.54-7.132H10.46L3.444 6.724 0 9.505v6.422h3.444V9.744l7.182 6.183h4.993L6.512 8.19zM3.444 1.058H0v4.037h3.444V1.058zM58.07 8.19l8.54-7.132h-4.592l-7.015 5.666-3.444 2.781v6.422h3.444V9.744l7.181 6.183h4.994L58.07 8.19zM55.003 1.058h-3.444v4.037h3.444V1.058z" fill="#FFE500"/></symbol>

</svg>