<svg id="Слой_1" data-name="Слой 1" xmlns="http://www.w3.org/2000/svg" viewBox="0 0 939 501.11"><defs><style>.cls-1{fill:#fff;fill-opacity:0.01;fill-rule:evenodd;}</style></defs><title>404</title><path class="cls-1" d="M580.71,170.94q28.11-31.2,78.94-36.74L685,160.42a6,6,0,0,1,1,6.89l-11.67,23a6,6,0,0,0,.94,6.79l17.26,18.73a6,6,0,0,1,.36,7.7l-7.47,9.79a21.49,21.49,0,0,0-2.83-.18c-22.49,0-22.49,32.39-22.49,45.24v216q0,39,20.17,41l-1.68,4.82a6,6,0,0,0,1.18,6l14.46,16.32a6,6,0,0,1,.86,6.69L682,595a6,6,0,0,0,1.21,7.06l3.62,3.46a6,6,0,0,1,.39,8.28l-18.08,20.77q-55.67-3.51-87.28-36.66-35.05-37.06-35-100.1V274.55Q546.83,208.88,580.71,170.94ZM699.4,634.31q52-4.39,82.85-37,35.63-37.65,35.63-99.52V274.55q0-65.37-34.17-103.32-30.12-34-86.51-37.76l10.36,31.65a6,6,0,0,1-.82,5.35l-14.48,20.36a6,6,0,0,0-.29,6.52l11,18.71a6,6,0,0,1-.37,6.64L692.67,236c12.47,8.24,12.47,32.25,12.47,42.4v216q0,36.95-18.12,40.72l-.45,2.19a6,6,0,0,0,1.2,5l16.54,20.58a6,6,0,0,1,.9,6l-10,25.25a6,6,0,0,0,.65,5.65l8,11.49a6,6,0,0,1,.83,5.12ZM307.29,443A12,12,0,0,1,296,426.82l59.65-162.64a4,4,0,0,1,7.75,1.38V431a12,12,0,0,1-12,12Zm56.13,158.12a24,24,0,0,0,24,24h48.39a24,24,0,0,0,24-24V522.26a4,4,0,0,1,4-4h15.81a24,24,0,0,0,24-24V467a24,24,0,0,0-24-24H463.81a4,4,0,0,1-4-4V165.17a24,24,0,0,0-24-24H355.73a24,24,0,0,0-22.14,14.73L214.86,439.38a24,24,0,0,0-1.86,9.27v45.61a24,24,0,0,0,24,24H359.42a4,4,0,0,1,4,4Zm581-174.26A12,12,0,0,0,955.67,443H999.8a12,12,0,0,0,12-12V265.56a4,4,0,0,0-7.75-1.38Zm91.4,198.26a24,24,0,0,1-24-24V522.26a4,4,0,0,0-4-4H885.38a24,24,0,0,1-24-24V448.65a24,24,0,0,1,1.86-9.27L982,155.9a24,24,0,0,1,22.14-14.73h80.08a24,24,0,0,1,24,24V439a4,4,0,0,0,4,4H1128a24,24,0,0,1,24,24v27.3a24,24,0,0,1-24,24h-15.81a4,4,0,0,0-4,4v78.82a24,24,0,0,1-24,24Z" transform="translate(-213 -133.47)"/></svg>