<svg id="Слой_1" data-name="Слой 1" xmlns="http://www.w3.org/2000/svg" viewBox="0 0 32 32"><defs><style>.cls-1{opacity:0.12;}.cls-2{fill:#c4c4c4;}.cls-3{fill:none;stroke:#fff;stroke-opacity:0.08;}</style></defs><title>balance-icon</title><g class="cls-1"><path class="cls-2" d="M688.65,378.35a.51.51,0,0,0-.71,0l-10.59,10.59a.5.5,0,1,0,.71.71l10.59-10.59A.51.51,0,0,0,688.65,378.35Z" transform="translate(-667 -368)"/><path class="cls-2" d="M677.35,378.35a.51.51,0,0,1,.71,0l10.59,10.59a.5.5,0,1,1-.71.71l-10.59-10.59A.51.51,0,0,1,677.35,378.35Z" transform="translate(-667 -368)"/></g><rect class="cls-3" x="0.5" y="0.5" width="31" height="31" rx="3.5"/></svg>