<svg id="Слой_1" data-name="Слой 1" xmlns="http://www.w3.org/2000/svg" xmlns:xlink="http://www.w3.org/1999/xlink" viewBox="0 0 881 881"><defs><style>.cls-1{opacity:0.56;}.cls-2{fill:url(#Безымянный_градиент);}.cls-3{fill:url(#Безымянный_градиент_2);}.cls-4{fill:url(#Безымянный_градиент_3);}.cls-5{fill:url(#Безымянный_градиент_4);}.cls-6{fill-opacity:0.65;fill:url(#Безымянный_градиент_5);}</style><radialGradient id="Безымянный_градиент" cx="-333.54" cy="842.79" r="1" gradientTransform="matrix(440.5, -440.5, -618.81, -618.81, 667950.7, 375207.74)" gradientUnits="userSpaceOnUse"><stop offset="0" stop-color="#e81d72"/><stop offset="1" stop-color="red" stop-opacity="0"/></radialGradient><radialGradient id="Безымянный_градиент_2" cx="-333.71" cy="843.78" r="1" gradientTransform="matrix(440.5, 440.5, 261.14, -261.14, -73842.81, 367064.77)" gradientUnits="userSpaceOnUse"><stop offset="0" stop-color="#ff8d6c"/><stop offset="1" stop-color="#ff5c00" stop-opacity="0.6"/></radialGradient><radialGradient id="Безымянный_градиент_3" cx="-334.46" cy="843.19" r="1" gradientTransform="matrix(-440.5, 440.5, 685.93, 685.93, -725316.27, -431313.31)" gradientUnits="userSpaceOnUse"><stop offset="0" stop-color="#00a7ff"/><stop offset="1" stop-color="#00a6fe" stop-opacity="0.12"/></radialGradient><radialGradient id="Безымянный_градиент_4" cx="-334.29" cy="842.54" r="1" gradientTransform="matrix(-440.5, -440.5, -440.5, 440.5, 224264.47, -517788.43)" gradientUnits="userSpaceOnUse"><stop offset="0.1" stop-color="#520aeb"/><stop offset="1" stop-color="#9f73ff" stop-opacity="0"/></radialGradient><radialGradient id="Безымянный_градиент_5" cx="-334.15" cy="844.95" r="1" gradientTransform="matrix(0, 515.55, 171.68, 0, -145118.43, 171992.02)" gradientUnits="userSpaceOnUse"><stop offset="0" stop-color="#f9c43c"/><stop offset="1" stop-color="#e7a601" stop-opacity="0"/></radialGradient></defs><title>bg-blur</title><g class="cls-1"><path class="cls-2" d="M-56.5-276h0C186.78-276,384-78.78,384,164.5h0C384,407.78,186.78,605-56.5,605h0C-299.78,605-497,407.78-497,164.5h0C-497-78.78-299.78-276-56.5-276Z" transform="translate(497 276)"/><path class="cls-3" d="M-56.5-276h0C186.78-276,384-78.78,384,164.5h0C384,407.78,186.78,605-56.5,605h0C-299.78,605-497,407.78-497,164.5h0C-497-78.78-299.78-276-56.5-276Z" transform="translate(497 276)"/><path class="cls-4" d="M-56.5-276h0C186.78-276,384-78.78,384,164.5h0C384,407.78,186.78,605-56.5,605h0C-299.78,605-497,407.78-497,164.5h0C-497-78.78-299.78-276-56.5-276Z" transform="translate(497 276)"/><path class="cls-5" d="M-56.5-276h0C186.78-276,384-78.78,384,164.5h0C384,407.78,186.78,605-56.5,605h0C-299.78,605-497,407.78-497,164.5h0C-497-78.78-299.78-276-56.5-276Z" transform="translate(497 276)"/><path class="cls-6" d="M-56.5-276h0C186.78-276,384-78.78,384,164.5h0C384,407.78,186.78,605-56.5,605h0C-299.78,605-497,407.78-497,164.5h0C-497-78.78-299.78-276-56.5-276Z" transform="translate(497 276)"/></g></svg>