<svg xmlns="http://www.w3.org/2000/svg" viewBox="0 0 24.5 24.5"><defs><style>.cls-1{fill:none;stroke:#ffe500;stroke-linecap:round;stroke-linejoin:round;stroke-width:0.5px;}.cls-2{fill:#ffe500;}</style></defs><g id="Layer_2" data-name="Layer 2"><g id="Layer_1-2" data-name="Layer 1"><circle class="cls-1" cx="12.25" cy="12.25" r="10.41781"/><circle class="cls-1" cx="12.25" cy="12.25" r="10.41781"/><line class="cls-1" x1="16.07121" y1="12.70047" x2="22.618" y2="12.70047"/><line class="cls-1" x1="21.85" y1="16.19182" x2="16.07121" y2="16.19182"/><circle class="cls-1" cx="11.74497" cy="7.76705" r="1.51798"/><circle class="cls-2" cx="11.74497" cy="7.76705" r="0.45539"/><polyline class="cls-1" points="12.49 6.442 15.768 3.72 14.098 8.314 17.437 10.551 13.718 10.551 12.874 8.89"/><polyline class="cls-1" points="14.477 7.251 16.602 7.287 14.857 8.693"/><path class="cls-1" d="M9.8357,10.338A4.82668,4.82668,0,0,0,10.992,11.71484"/><path class="cls-1" d="M10.81922,6.56441A2.53149,2.53149,0,0,0,9.468,9.285"/><line class="cls-1" x1="13.71834" y1="10.57" x2="13.71834" y2="11.71484"/><line class="cls-1" x1="17.338" y1="21.37" x2="13.56549" y2="15.62791"/><line class="cls-1" x1="11.28958" y1="17.02671" x2="8.38183" y2="21.63228"/><path class="cls-1" d="M13.88277,11.71379H10.85326a.24677.24677,0,0,0-.24677.24677v1.16153h2.78383a.328.328,0,0,1,.328.328v.76325a.3508.3508,0,0,1-.3508.3508H10.51171a.24677.24677,0,0,1-.24677-.24677v-.9527a.24677.24677,0,0,1,.24677-.24677h1.61276"/><path class="cls-1" d="M13.34379,15.75519H10.8526a.24611.24611,0,0,1-.24611-.24611v-.94492H13.5899v.94492A.24611.24611,0,0,1,13.34379,15.75519Z"/><path class="cls-1" d="M13.01618,16.98876H11.1948A.24678.24678,0,0,1,10.948,16.742v-.94426H13.263V16.742A.24677.24677,0,0,1,13.01618,16.98876Z"/><path class="cls-1" d="M16.07121,13.79522V12.67731a.96353.96353,0,0,0-.96353-.96352H12.73191"/><path class="cls-1" d="M16.07121,15.308v.87691a.8418.8418,0,0,1-.8418.8418h-.692"/><path class="cls-1" d="M10.948,6.47512S5.82486,5.26239,4.15509,10.27171l1.82157-.53129a6.68113,6.68113,0,0,0,.2277,6.83089l1.13848-4.09853s.233,2.10043,1.675,2.55583c0,0-.31728-2.785,1.41011-3.84256"/><line class="cls-1" x1="17.41495" y1="15.0329" x2="19.26033" y2="15.0329"/><circle class="cls-1" cx="12.25" cy="12.25" r="12"/><line class="cls-1" x1="12.80756" y1="18.93949" x2="12.80756" y2="20.95449"/><line class="cls-1" x1="11.44861" y1="18.93949" x2="10.60512" y2="20.62646"/><line class="cls-1" x1="14.35394" y1="18.93949" x2="15.19743" y2="20.62646"/><line class="cls-1" x1="11.63605" y1="11.72301" x2="11.63605" y2="13.0351"/></g></g></svg>