<svg id="Слой_1" data-name="Слой 1" xmlns="http://www.w3.org/2000/svg" viewBox="0 0 16 20"><defs><style>.cls-1{opacity:0.12;}.cls-2,.cls-3{fill:#fff;}.cls-2{fill-rule:evenodd;}</style></defs><title>draganddrop-user</title><g class="cls-1"><path class="cls-2" d="M679.29,378.71a1,1,0,0,0,1.42,0l2.29-2.3,2.29,2.3a1,1,0,1,0,1.42-1.42l-3-3a1,1,0,0,0-1.42,0l-3,3A1,1,0,0,0,679.29,378.71Z" transform="translate(-675 -374)"/><path class="cls-3" d="M675,384a1,1,0,0,1,1-1h14a1,1,0,0,1,0,2H676A1,1,0,0,1,675,384Z" transform="translate(-675 -374)"/><path class="cls-2" d="M679.29,389.29a1,1,0,0,1,1.42,0l2.29,2.3,2.29-2.3a1,1,0,0,1,1.42,1.42l-3,3a1,1,0,0,1-1.42,0l-3-3A1,1,0,0,1,679.29,389.29Z" transform="translate(-675 -374)"/></g></svg>