<svg id="Слой_1" data-name="Слой 1" xmlns="http://www.w3.org/2000/svg" viewBox="0 0 22 22"><defs><style>.cls-1{fill:#ffe500;}</style></defs><path class="cls-1" d="M952.88,546.68H953l4.63-.82a.26.26,0,0,0,.15-.07l11.65-11.66a.24.24,0,0,0,.06-.09.18.18,0,0,0,0-.1.2.2,0,0,0,0-.11.24.24,0,0,0-.06-.09l-4.57-4.57a.27.27,0,0,0-.19-.08.28.28,0,0,0-.2.08l-11.65,11.66a.23.23,0,0,0-.08.14l-.81,4.63a.94.94,0,0,0,0,.44,1,1,0,0,0,.24.38A1,1,0,0,0,952.88,546.68Zm1.85-4.8,10-10,2,2-10,10-2.45.43ZM970,549H949.75a.88.88,0,0,0-.88.88v1a.22.22,0,0,0,.22.22h21.56a.22.22,0,0,0,.22-.22v-1A.87.87,0,0,0,970,549Z" transform="translate(-948.87 -529.08)"/></svg>