<svg id="Слой_1" data-name="Слой 1" xmlns="http://www.w3.org/2000/svg" viewBox="0 0 675.48 675.55"><defs><style>.cls-1{fill:#7748ff;}</style></defs><title>function-new-icon-reg</title><path class="cls-1" d="M1003.6,342.5,724.5,63.4a58.73,58.73,0,0,0-83,0L362.4,342.5a58.73,58.73,0,0,0,0,83L641.5,704.6a58.73,58.73,0,0,0,83,0l279.1-279.1A58.91,58.91,0,0,0,1003.6,342.5ZM833.9,327.7,648.6,513,542.9,407.3a30.33,30.33,0,1,1,42.9-42.9l62.8,62.8L791,284.8a30.33,30.33,0,1,1,42.9,42.9Z" transform="translate(-345.23 -46.23)"/></svg>