<svg id="Слой_1" data-name="Слой 1" xmlns="http://www.w3.org/2000/svg" viewBox="0 0 463.4 497"><defs><style>.cls-1{fill:#7748ff;}</style></defs><title>function-new-icon-game</title><path class="cls-1" d="M576.6,249.3a22.68,22.68,0,0,1-22.7-22.7V157.7a22.7,22.7,0,1,1,45.4,0v68.9A22.62,22.62,0,0,1,576.6,249.3Z" transform="translate(-451.3 -135)"/><path class="cls-1" d="M787.3,249.3a22.68,22.68,0,0,1-22.7-22.7V157.7a22.7,22.7,0,0,1,45.4,0v68.9A22.68,22.68,0,0,1,787.3,249.3Z" transform="translate(-451.3 -135)"/><path class="cls-1" d="M914.7,310.3V237a68.5,68.5,0,0,0-68.4-68.4H835.7v64.7a48.1,48.1,0,0,1-96.2,0V168.6h-113v64.7a48.1,48.1,0,0,1-96.2,0V168.6H519.7A68.5,68.5,0,0,0,451.3,237v73.3Z" transform="translate(-451.3 -135)"/><path class="cls-1" d="M451.3,346.4V563.6A68.5,68.5,0,0,0,519.7,632H846.3a68.5,68.5,0,0,0,68.4-68.4V346.4Zm352.9,76.7L682,545.3l-69.7-69.7a20,20,0,0,1,28.3-28.3L682,488.7l93.9-93.9a20,20,0,0,1,28.3,28.3Z" transform="translate(-451.3 -135)"/></svg>