<svg data-name="Слой 1" xmlns="http://www.w3.org/2000/svg" viewBox="0 0 24 20"><defs><style>.cls-1{fill:#ffe500;}</style></defs><title>icon-history</title><path class="cls-1" d="M694.75,380.63l-6-6.36a.81.81,0,0,0-1.21,0,.93.93,0,0,0-.25.64v2.73h-6a.91.91,0,0,0,0,1.81h6.85a.88.88,0,0,0,.86-.9V377.1l3.93,4.17L689,385.44V384a.88.88,0,0,0-.86-.91h-9.43v-2.73a.88.88,0,0,0-.85-.91.84.84,0,0,0-.61.27l-6,6.36a1,1,0,0,0,0,1.29l6,6.36a.84.84,0,0,0,.61.27.78.78,0,0,0,.33-.07.9.9,0,0,0,.52-.84v-2.73h6a.91.91,0,0,0,0-1.81h-6.85a.88.88,0,0,0-.86.9v1.45l-3.93-4.17,3.93-4.17V384a.88.88,0,0,0,.86.91h9.43v2.73a.88.88,0,0,0,.85.91.84.84,0,0,0,.61-.27l6-6.36A1,1,0,0,0,694.75,380.63Z" transform="translate(-671 -374)"/></svg>