<svg id="Слой_1" data-name="Слой 1" xmlns="http://www.w3.org/2000/svg" viewBox="0 0 11 14"><defs><style>.cls-1{fill:#fff;fill-rule:evenodd;}</style></defs><title>icon-user-tournamet</title><path class="cls-1" d="M682.5,377a3,3,0,1,0,3,2.95A3,3,0,0,0,682.5,377ZM680.38,380a2.12,2.12,0,1,1,2.12,2.11A2.11,2.11,0,0,1,680.38,380Z" transform="translate(-677 -377)"/><path class="cls-1" d="M681.82,383.58a4.81,4.81,0,0,0-4.82,4.81,2.61,2.61,0,0,0,2.62,2.61h5.76a2.61,2.61,0,0,0,2.62-2.61,4.81,4.81,0,0,0-4.82-4.81Zm-4,4.81a4,4,0,0,1,4-4h1.36a4,4,0,0,1,4,4,1.78,1.78,0,0,1-1.78,1.77h-5.76A1.78,1.78,0,0,1,677.84,388.39Z" transform="translate(-677 -377)"/></svg>