<svg id="Слой_1" data-name="Слой 1" xmlns="http://www.w3.org/2000/svg" viewBox="0 0 31.08 36.49"><defs><style>.cls-1,.cls-2{fill:#282129;}.cls-2,.cls-3{stroke:#ffe500;stroke-width:2px;}.cls-3{fill:none;stroke-linejoin:round;}</style></defs><title>icon-input-prem</title><path class="cls-1" d="M667.32,368a2,2,0,0,1,2-2H696.4a2,2,0,0,1,2,2v22.17a2,2,0,0,1-.79,1.59l-13.54,10.32a2,2,0,0,1-2.42,0l-13.54-10.32a2,2,0,0,1-.79-1.59Z" transform="translate(-667.32 -366)"/><path class="cls-2" d="M671.28,371a1,1,0,0,1,1-1h21.16a1,1,0,0,1,1,1v18.17a1,1,0,0,1-.38.78l-10.58,8.36a1,1,0,0,1-1.24,0l-10.58-8.36a1,1,0,0,1-.38-.78Z" transform="translate(-667.32 -366)"/><path class="cls-3" d="M676.92,377l2.64,3.62,3.3-3.62,3.3,3.62L688.8,377v9.24H676.92Z" transform="translate(-667.32 -366)"/></svg>