<svg id="Слой_1" data-name="Слой 1" xmlns="http://www.w3.org/2000/svg" xmlns:xlink="http://www.w3.org/1999/xlink" viewBox="0 0 18.48 21.49"><defs><style>.cls-1{fill:none;}.cls-2{clip-path:url(#clip-path);}.cls-3,.cls-4{fill:#0e2032;}.cls-4{stroke:#00da5b;}</style><clipPath id="clip-path" transform="translate(-674 -374)"><rect class="cls-1" x="671" y="372" width="24" height="24"/></clipPath></defs><title>icon-input-base</title><g class="cls-2"><path class="cls-3" d="M674,376a2,2,0,0,1,2-2h14.48a2,2,0,0,1,2,2v12a2,2,0,0,1-.79,1.59l-7.24,5.52a2,2,0,0,1-2.42,0l-7.24-5.52A2,2,0,0,1,674,388Z" transform="translate(-674 -374)"/><path class="cls-4" d="M676.26,377.76a1.5,1.5,0,0,1,1.5-1.5h11a1.5,1.5,0,0,1,1.5,1.5v9.6a1.48,1.48,0,0,1-.57,1.17l-5.48,4.34a1.5,1.5,0,0,1-1.86,0l-5.48-4.34a1.48,1.48,0,0,1-.57-1.17Z" transform="translate(-674 -374)"/><circle class="cls-4" cx="9.33" cy="10" r="3.5"/></g></svg>