<svg id="Слой_1" data-name="Слой 1" xmlns="http://www.w3.org/2000/svg" xmlns:xlink="http://www.w3.org/1999/xlink" viewBox="0 0 57 55"><defs><style>.cls-1,.cls-3{fill:none;stroke-linecap:round;}.cls-1{stroke:#ffe500;stroke-linejoin:round;stroke-width:2px;}.cls-2{fill:url(#Безымянный_градиент_2);}.cls-3{stroke:#000;stroke-width:4px;}</style><linearGradient id="Безымянный_градиент_2" x1="652.06" y1="392.05" x2="697.94" y2="361.95" gradientTransform="matrix(1, 0, 0, -1, -654, 414)" gradientUnits="userSpaceOnUse"><stop offset="0" stop-color="#fff" stop-opacity="0.32"/><stop offset="1" stop-color="#fff" stop-opacity="0.04"/></linearGradient></defs><title>icon-adv-gs-2</title><path class="cls-1" d="M686.67,371.4V365a7.75,7.75,0,0,1,2.15-5.37,8.46,8.46,0,0,1,5.34-2.6,8.56,8.56,0,0,1,5.78,1.52,7.92,7.92,0,0,1,3.23,4.85m-19.84,8h23.34a3.27,3.27,0,0,1,3.33,3.2v11.2a3.26,3.26,0,0,1-3.33,3.2H683.33a3.26,3.26,0,0,1-3.33-3.2V374.6A3.27,3.27,0,0,1,683.33,371.4Z" transform="translate(-654 -356)"/><rect class="cls-2" y="19" width="42" height="36" rx="12"/><path class="cls-3" d="M669,393h12m-6,6V387" transform="translate(-654 -356)"/></svg>