<svg id="Слой_1" data-name="Слой 1" xmlns="http://www.w3.org/2000/svg" viewBox="0 0 184.25 41.03"><defs><style>.cls-1{fill:#ffe500;}</style></defs><title>logo-tagline</title><path class="cls-1" d="M630.12,399.5h6.38v-1.36h-6.38v-2.65h6.71v-1.38h-8.19v10h8.29v-1.39h-6.81Z" transform="translate(-590.13 -363.24)"/><path class="cls-1" d="M652,399.66a4.84,4.84,0,0,0-.93-.54,10.53,10.53,0,0,0-1.08-.4l-1.16-.32-1.15-.3c-.36-.1-.71-.2-1-.31a5.17,5.17,0,0,1-.81-.35,1.78,1.78,0,0,1-.51-.4.7.7,0,0,1-.15-.43.9.9,0,0,1,.17-.55,1.41,1.41,0,0,1,.56-.43,3.8,3.8,0,0,1,1-.27,10,10,0,0,1,2.56,0c.35.05.67.12,1,.19a5.82,5.82,0,0,1,.74.25l.58.27.42.2v-1.67l-.22-.06-.86-.22-.88-.19-.94-.13a10.79,10.79,0,0,0-2.05,0,8,8,0,0,0-1,.16,6.2,6.2,0,0,0-.92.3,3.07,3.07,0,0,0-.78.5,2.3,2.3,0,0,0-.55.72,2.19,2.19,0,0,0-.2,1,1.92,1.92,0,0,0,.26,1,2.4,2.4,0,0,0,.67.72,3.94,3.94,0,0,0,.93.52,10.32,10.32,0,0,0,1.07.37l1.16.31,1.14.28c.36.09.7.2,1,.31a4.08,4.08,0,0,1,.81.37,1.67,1.67,0,0,1,.5.44.82.82,0,0,1,.16.51,1,1,0,0,1-.2.63,1.69,1.69,0,0,1-.65.46,4.31,4.31,0,0,1-1.09.29,11.38,11.38,0,0,1-3.48-.11,6.18,6.18,0,0,1-1.82-.72l-.43-.27v1.77l.19.07a12.15,12.15,0,0,0,1.89.49,12.43,12.43,0,0,0,2.21.18c.35,0,.71,0,1.08,0s.73-.09,1.07-.16a5.85,5.85,0,0,0,1-.31,3.58,3.58,0,0,0,.85-.52,2.39,2.39,0,0,0,.6-.77,2.49,2.49,0,0,0,.22-1.05,2,2,0,0,0-.26-1A2.65,2.65,0,0,0,652,399.66Z" transform="translate(-590.13 -363.24)"/><path class="cls-1" d="M668.48,394.9a3.9,3.9,0,0,0-1.33-.61,8,8,0,0,0-1.89-.19H660v10h1.4v-3.61h3.82a8.07,8.07,0,0,0,1.9-.19,3.69,3.69,0,0,0,1.34-.61,2.41,2.41,0,0,0,.79-1,3.8,3.8,0,0,0,0-2.71A2.59,2.59,0,0,0,668.48,394.9Zm-3,4.18h-4.08v-3.59h3.29c.62,0,1.16,0,1.6.07a3.33,3.33,0,0,1,1,.27,1.21,1.21,0,0,1,.54.51,2.54,2.54,0,0,1,0,1.77,1.28,1.28,0,0,1-.38.5,1.7,1.7,0,0,1-.55.29,5.55,5.55,0,0,1-.73.15A5.09,5.09,0,0,1,665.52,399.08Z" transform="translate(-590.13 -363.24)"/><path class="cls-1" d="M686.42,395.16a5.5,5.5,0,0,0-1.93-.93,9.64,9.64,0,0,0-4-.16,6.73,6.73,0,0,0-1.45.4,5.66,5.66,0,0,0-1.25.7,4.19,4.19,0,0,0-1,1,4.34,4.34,0,0,0-.62,1.32,5.4,5.4,0,0,0-.22,1.61,5.35,5.35,0,0,0,.47,2.31,4.44,4.44,0,0,0,1.32,1.62,5.55,5.55,0,0,0,1.94.93,9.49,9.49,0,0,0,2.37.3,9.35,9.35,0,0,0,2.36-.3,5.92,5.92,0,0,0,1.94-.93,4.62,4.62,0,0,0,1.31-1.62,5.94,5.94,0,0,0,0-4.63A4.46,4.46,0,0,0,686.42,395.16Zm.36,3.94a4.17,4.17,0,0,1-.3,1.64,3.06,3.06,0,0,1-.85,1.18,3.76,3.76,0,0,1-1.44.73,8.33,8.33,0,0,1-4.13,0,3.81,3.81,0,0,1-1.45-.73,3,3,0,0,1-.86-1.18,4.63,4.63,0,0,1,0-3.28,3.06,3.06,0,0,1,.86-1.18,4,4,0,0,1,1.45-.74,7.55,7.55,0,0,1,2.07-.26,7.43,7.43,0,0,1,2.06.26,3.84,3.84,0,0,1,1.44.73,3.14,3.14,0,0,1,.85,1.18A4.19,4.19,0,0,1,686.78,399.1Z" transform="translate(-590.13 -363.24)"/><path class="cls-1" d="M703.89,399a2.8,2.8,0,0,0,.61-1.87,3.21,3.21,0,0,0-.24-1.3,2.28,2.28,0,0,0-.8-1,3.55,3.55,0,0,0-1.32-.54,8.28,8.28,0,0,0-1.85-.18h-4.84v10h1.4v-4h4.09l2.94,4h1.77l-3.2-4.25A3.06,3.06,0,0,0,703.89,399Zm-7-3.48h2.55c.73,0,1.34,0,1.83.07a4.43,4.43,0,0,1,1.14.25,1,1,0,0,1,.53.46,1.61,1.61,0,0,1,.17.83,1.7,1.7,0,0,1-.17.82,1.06,1.06,0,0,1-.54.44,3.65,3.65,0,0,1-1.15.25c-.5,0-1.11.06-1.84.06h-2.52Z" transform="translate(-590.13 -363.24)"/><path class="cls-1" d="M710.77,395.47h4.15v8.61h1.4v-8.61h4.17v-1.36h-9.72Z" transform="translate(-590.13 -363.24)"/><path class="cls-1" d="M735.6,400.4a2.67,2.67,0,0,0-.65-.74,4.84,4.84,0,0,0-.93-.54,10.72,10.72,0,0,0-1.09-.4c-.37-.11-.76-.22-1.16-.32l-1.14-.3c-.37-.1-.71-.2-1-.31a5.31,5.31,0,0,1-.82-.35,1.72,1.72,0,0,1-.5-.4.64.64,0,0,1-.15-.43.84.84,0,0,1,.17-.55,1.45,1.45,0,0,1,.55-.43,4,4,0,0,1,1-.27,10,10,0,0,1,2.57,0,9.37,9.37,0,0,1,1,.19,5.33,5.33,0,0,1,.74.25l.59.27.41.2v-1.67l-.21-.06-.86-.22-.89-.19-.94-.13a10.68,10.68,0,0,0-2,0,7.73,7.73,0,0,0-1,.16,6.33,6.33,0,0,0-.93.3,3.19,3.19,0,0,0-.77.5,2.16,2.16,0,0,0-.55.72,2.19,2.19,0,0,0-.2,1,1.83,1.83,0,0,0,.26,1,2.5,2.5,0,0,0,.66.72,4.15,4.15,0,0,0,.93.52,11.41,11.41,0,0,0,1.08.37c.37.11.75.21,1.16.31l1.14.28c.35.09.7.2,1,.31a4,4,0,0,1,.8.37,1.59,1.59,0,0,1,.51.44.82.82,0,0,1,.16.51.94.94,0,0,1-.21.63,1.55,1.55,0,0,1-.65.46,4.11,4.11,0,0,1-1.08.29,11.36,11.36,0,0,1-3.48-.11,6.18,6.18,0,0,1-1.82-.72l-.44-.27v1.77l.19.07a12.58,12.58,0,0,0,1.9.49,12.35,12.35,0,0,0,2.21.18c.35,0,.71,0,1.07,0s.74-.09,1.08-.16a6.14,6.14,0,0,0,1-.31,3.79,3.79,0,0,0,.85-.52,2.23,2.23,0,0,0,.59-.77,2.35,2.35,0,0,0,.22-1.05A1.86,1.86,0,0,0,735.6,400.4Z" transform="translate(-590.13 -363.24)"/><path class="cls-1" d="M615.76,379.2V363.63h4.09V379.2Z" transform="translate(-590.13 -363.24)"/><path class="cls-1" d="M642.53,378.75a16.22,16.22,0,0,1-3.48.77,19,19,0,0,1-2.06.1,16.7,16.7,0,0,1-4.26-.51,9.8,9.8,0,0,1-3.36-1.54,7.07,7.07,0,0,1-2.19-2.55,7.85,7.85,0,0,1-.79-3.59,7.65,7.65,0,0,1,.79-3.58,7.12,7.12,0,0,1,2.19-2.56,10,10,0,0,1,3.36-1.54,17.21,17.21,0,0,1,4.26-.51,16.75,16.75,0,0,1,2.06.11,16.3,16.3,0,0,1,1.81.29c.57.14,1.13.29,1.67.47s1.07.39,1.6.61v3.78c-.41-.23-.86-.47-1.32-.69a13,13,0,0,0-1.54-.63,11.26,11.26,0,0,0-1.84-.45,13,13,0,0,0-2.27-.18A10.76,10.76,0,0,0,634,367a5.78,5.78,0,0,0-2,1.09,3.71,3.71,0,0,0-1.07,1.56,5.55,5.55,0,0,0-.31,1.81,6.34,6.34,0,0,0,.13,1.23,3.85,3.85,0,0,0,.44,1.14,4.19,4.19,0,0,0,.81,1,4.54,4.54,0,0,0,1.24.78,8,8,0,0,0,1.73.52,12.79,12.79,0,0,0,2.28.19,14.1,14.1,0,0,0,2.27-.17,12.74,12.74,0,0,0,1.84-.44,10.3,10.3,0,0,0,1.54-.62c.46-.23.91-.46,1.32-.7v3.78C643.61,378.36,643.07,378.56,642.53,378.75Z" transform="translate(-590.13 -363.24)"/><path class="cls-1" d="M685.82,363.24a20.82,20.82,0,0,1,4.15.39,22.15,22.15,0,0,1,3.52,1v3.8a13.92,13.92,0,0,0-3.14-1.3,15.43,15.43,0,0,0-2-.43,14.56,14.56,0,0,0-2.23-.15,13.64,13.64,0,0,0-2.54.21,7.47,7.47,0,0,0-1.85.58,4.52,4.52,0,0,0-1.27.84,4.12,4.12,0,0,0-.78,1,4.23,4.23,0,0,0-.4,1.11,5.26,5.26,0,0,0-.11,1.1,6.08,6.08,0,0,0,.09,1,4.19,4.19,0,0,0,.35,1.09,3.89,3.89,0,0,0,.72,1,4.63,4.63,0,0,0,1.21.89,7.48,7.48,0,0,0,1.79.62,12.1,12.1,0,0,0,2.5.23,11.69,11.69,0,0,0,1.26-.05c.36,0,.69-.07,1-.12a8.43,8.43,0,0,0,.83-.2l.81-.23v-1.88h-4.59V370.4h8.69v8a17.94,17.94,0,0,1-1.83.52c-.67.15-1.37.29-2.09.4s-1.44.19-2.16.25-1.4.1-2,.1a19,19,0,0,1-2.86-.21,13.21,13.21,0,0,1-2.55-.62,9.56,9.56,0,0,1-2.17-1.08,6.82,6.82,0,0,1-2.74-3.65,8.63,8.63,0,0,1-.38-2.64,8.11,8.11,0,0,1,.4-2.63,6.89,6.89,0,0,1,1.1-2.08,7.28,7.28,0,0,1,1.71-1.56,10,10,0,0,1,2.2-1.08,12.78,12.78,0,0,1,2.56-.63A20.64,20.64,0,0,1,685.82,363.24Z" transform="translate(-590.13 -363.24)"/><path class="cls-1" d="M710.8,367.49l-5.67,11.71h-4.57l7.94-15.57h4.57L721,379.2h-4.57Z" transform="translate(-590.13 -363.24)"/><path class="cls-1" d="M747.29,379.2V368.27l-5.63,10.93h-3.93l-5.63-10.93V379.2H728V363.63h5.57l6.13,11.78,6.13-11.78h5.55V379.2Z" transform="translate(-590.13 -363.24)"/><path class="cls-1" d="M763.06,375.88v-3h10.58v-3.32H758.85v9.68h15.53v-3.32ZM774.21,367v-3.32H758.85V367Z" transform="translate(-590.13 -363.24)"/><path class="cls-1" d="M597.92,371.1l10.21-7.47h-5.49l-8.39,5.94-4.12,2.91v6.72h4.12v-6.47l8.59,6.47h6Z" transform="translate(-590.13 -363.24)"/><path class="cls-1" d="M594.25,363.63h-4.12v4.23h4.12Z" transform="translate(-590.13 -363.24)"/><path class="cls-1" d="M659.6,371.1l10.22-7.47h-5.49l-8.4,5.94-4.12,2.91v6.72h4.12v-6.47l8.59,6.47h6Z" transform="translate(-590.13 -363.24)"/><path class="cls-1" d="M655.93,363.63h-4.12v4.23h4.12Z" transform="translate(-590.13 -363.24)"/></svg>