<svg id="Слой_1" data-name="Слой 1" xmlns="http://www.w3.org/2000/svg" viewBox="0 0 154 15.65"><defs><style>.cls-1{fill:#ffe500;}</style></defs><title>logo</title><path class="cls-1" d="M627.42,390.93V376.06h3.43v14.87Z" transform="translate(-606 -375.68)"/><path class="cls-1" d="M649.8,390.49a12.08,12.08,0,0,1-2.91.74,15.29,15.29,0,0,1-1.72.09,12.51,12.51,0,0,1-3.56-.48,7.85,7.85,0,0,1-2.81-1.47,6.68,6.68,0,0,1-1.83-2.44,8.46,8.46,0,0,1-.66-3.43,8.28,8.28,0,0,1,.66-3.42,6.68,6.68,0,0,1,1.83-2.44,7.85,7.85,0,0,1,2.81-1.47,12.5,12.5,0,0,1,3.56-.49,13.28,13.28,0,0,1,1.72.1,11.69,11.69,0,0,1,1.52.29,12.5,12.5,0,0,1,1.39.44c.45.18.9.37,1.34.59v3.61c-.35-.23-.72-.45-1.11-.67a10.9,10.9,0,0,0-1.28-.6,10.06,10.06,0,0,0-1.54-.43,9.91,9.91,0,0,0-1.9-.16,7.66,7.66,0,0,0-2.68.39,4.49,4.49,0,0,0-1.7,1,3.6,3.6,0,0,0-.9,1.49,6,6,0,0,0-.26,1.74,6.62,6.62,0,0,0,.11,1.17,4,4,0,0,0,.37,1.09,3.68,3.68,0,0,0,.68.95,3.56,3.56,0,0,0,1,.75,5.87,5.87,0,0,0,1.45.49,9,9,0,0,0,1.9.18,9.91,9.91,0,0,0,1.9-.16,9.33,9.33,0,0,0,1.54-.41A9.49,9.49,0,0,0,650,387c.39-.23.76-.45,1.11-.68v3.61C650.7,390.12,650.26,390.31,649.8,390.49Z" transform="translate(-606 -375.68)"/><path class="cls-1" d="M686,375.68a15.2,15.2,0,0,1,3.47.37,16.89,16.89,0,0,1,2.94,1v3.63a9.92,9.92,0,0,0-1.18-.67,10.54,10.54,0,0,0-1.44-.58,12.61,12.61,0,0,0-1.66-.4,10.16,10.16,0,0,0-1.86-.15,10.28,10.28,0,0,0-2.13.2,6.37,6.37,0,0,0-1.55.55,4.06,4.06,0,0,0-1.06.81,4.28,4.28,0,0,0-.65,1,4.07,4.07,0,0,0-.33,1.06,5.48,5.48,0,0,0-.1,1.05,6.65,6.65,0,0,0,.08,1,4.36,4.36,0,0,0,.29,1,3.89,3.89,0,0,0,.61,1,4,4,0,0,0,1,.84,5.72,5.72,0,0,0,1.5.59,8.44,8.44,0,0,0,2.09.23c.41,0,.76,0,1.06,0s.57-.07.83-.12a5.13,5.13,0,0,0,.7-.19l.67-.22v-1.79h-3.84v-3.26h7.27v7.59a13.76,13.76,0,0,1-1.53.5c-.56.15-1.14.27-1.75.38s-1.2.18-1.81.24-1.17.09-1.7.09a14.4,14.4,0,0,1-2.4-.19,10.11,10.11,0,0,1-2.13-.6,7.46,7.46,0,0,1-1.81-1,6.25,6.25,0,0,1-1.4-1.5,7,7,0,0,1-.89-2,9.34,9.34,0,0,1-.32-2.52,9,9,0,0,1,.33-2.52,7.07,7.07,0,0,1,.92-2,6.58,6.58,0,0,1,1.43-1.5,8.06,8.06,0,0,1,1.84-1,10.38,10.38,0,0,1,2.14-.6A14.48,14.48,0,0,1,686,375.68Z" transform="translate(-606 -375.68)"/><path class="cls-1" d="M706.87,379.74l-4.75,11.19H698.3l6.64-14.87h3.82l6.64,14.87h-3.82Z" transform="translate(-606 -375.68)"/><path class="cls-1" d="M737.37,390.93V380.48l-4.71,10.45h-3.29l-4.7-10.45v10.45h-3.43V376.06h4.66L731,387.31l5.12-11.25h4.64v14.87Z" transform="translate(-606 -375.68)"/><path class="cls-1" d="M750.54,387.75v-2.9h8.85v-3.17H747v9.25h13v-3.18Zm9.33-8.52v-3.17H747v3.17Z" transform="translate(-606 -375.68)"/><path class="cls-1" d="M612.51,383.19l8.54-7.13h-4.59l-7,5.66L606,384.51v6.42h3.44v-6.19l7.19,6.19h5Z" transform="translate(-606 -375.68)"/><path class="cls-1" d="M609.44,376.06H606v4h3.44Z" transform="translate(-606 -375.68)"/><path class="cls-1" d="M664.07,383.19l8.54-7.13H668l-7,5.66-3.44,2.79v6.42H661v-6.19l7.18,6.19h5Z" transform="translate(-606 -375.68)"/><path class="cls-1" d="M661,376.06h-3.44v4H661Z" transform="translate(-606 -375.68)"/></svg>