<svg id="Слой_1" data-name="Слой 1" xmlns="http://www.w3.org/2000/svg" viewBox="0 0 368.5 80"><defs><style>.cls-1{fill:#ffe500;}</style></defs><title>logo-tagline</title><path class="cls-1" d="M578.8,415.71h12.76v-2.66H578.8v-5.16h13.43v-2.7H575.84v19.44h16.59v-2.7H578.8Z" transform="translate(-498.82 -345)"/><path class="cls-1" d="M622.51,416a9.43,9.43,0,0,0-1.86-1.06,21.23,21.23,0,0,0-2.17-.78c-.75-.22-1.53-.44-2.32-.64s-1.54-.38-2.29-.58-1.42-.38-2.08-.59a10.51,10.51,0,0,1-1.63-.69,3.6,3.6,0,0,1-1-.78,1.33,1.33,0,0,1-.3-.84,1.8,1.8,0,0,1,.33-1.08,3,3,0,0,1,1.12-.82,7.34,7.34,0,0,1,2-.54,20.94,20.94,0,0,1,5.13,0,17.07,17.07,0,0,1,1.91.37,9.87,9.87,0,0,1,1.48.49c.44.18.84.36,1.17.52l.83.39v-3.26l-.43-.11-1.72-.43c-.58-.13-1.16-.26-1.77-.36S617.64,405,617,405a20.68,20.68,0,0,0-4.09,0,15.77,15.77,0,0,0-2,.3,10.54,10.54,0,0,0-1.85.6,6.15,6.15,0,0,0-1.55,1,4.49,4.49,0,0,0-1.1,1.42,4.12,4.12,0,0,0-.4,1.88,3.55,3.55,0,0,0,.52,1.93,4.8,4.8,0,0,0,1.33,1.41,8.4,8.4,0,0,0,1.86,1,20.83,20.83,0,0,0,2.15.74c.75.21,1.51.41,2.32.59l2.27.55c.72.18,1.41.4,2.07.61a8.08,8.08,0,0,1,1.61.72,3.19,3.19,0,0,1,1,.85,1.64,1.64,0,0,1,.32,1,1.86,1.86,0,0,1-.41,1.23,3.3,3.3,0,0,1-1.3.9,8.08,8.08,0,0,1-2.17.55,22.35,22.35,0,0,1-7-.21,11.72,11.72,0,0,1-3.65-1.41l-.87-.51v3.44l.38.14a24.89,24.89,0,0,0,3.78,1,26,26,0,0,0,4.43.35c.7,0,1.42,0,2.15-.09a20.61,20.61,0,0,0,2.15-.3,12.27,12.27,0,0,0,2-.61,6.65,6.65,0,0,0,1.7-1,4.41,4.41,0,0,0,1.63-3.54,3.62,3.62,0,0,0-.52-1.95A5.15,5.15,0,0,0,622.51,416Z" transform="translate(-498.82 -345)"/><path class="cls-1" d="M655.53,406.73a7.55,7.55,0,0,0-2.67-1.17,16,16,0,0,0-3.77-.38H638.64v19.44h2.81v-7h7.64a16.11,16.11,0,0,0,3.79-.38,7,7,0,0,0,2.68-1.19,4.69,4.69,0,0,0,1.59-2,7.36,7.36,0,0,0,0-5.28A5.13,5.13,0,0,0,655.53,406.73Zm-5.93,8.17h-8.15v-7H648c1.24,0,2.33.05,3.21.14a6.31,6.31,0,0,1,2.09.52,2.37,2.37,0,0,1,1.08,1,4.69,4.69,0,0,1,.08,3.45,2.47,2.47,0,0,1-.75,1,3,3,0,0,1-1.11.56,8.46,8.46,0,0,1-1.45.29A11.71,11.71,0,0,1,649.6,414.9Z" transform="translate(-498.82 -345)"/><path class="cls-1" d="M691.41,407.25a11.16,11.16,0,0,0-3.87-1.82,20,20,0,0,0-7.94-.32,14.72,14.72,0,0,0-2.9.8,10.89,10.89,0,0,0-2.49,1.36,8.64,8.64,0,0,0-1.94,2A8.8,8.8,0,0,0,671,411.8a10.73,10.73,0,0,0-.44,3.14,10.12,10.12,0,0,0,.94,4.5,8.73,8.73,0,0,0,2.64,3.16,10.91,10.91,0,0,0,3.89,1.82,18.94,18.94,0,0,0,4.74.58,18.7,18.7,0,0,0,4.71-.58,11.59,11.59,0,0,0,3.88-1.82,8.88,8.88,0,0,0,2.62-3.16,10,10,0,0,0,1-4.5,10.12,10.12,0,0,0-1-4.51A8.63,8.63,0,0,0,691.41,407.25Zm.72,7.68a8.16,8.16,0,0,1-.59,3.2,6.08,6.08,0,0,1-1.71,2.29,7.77,7.77,0,0,1-2.89,1.44,15.34,15.34,0,0,1-4.12.5,15.49,15.49,0,0,1-4.14-.5,7.69,7.69,0,0,1-2.89-1.44,5.74,5.74,0,0,1-1.73-2.29,8.95,8.95,0,0,1,0-6.39,6,6,0,0,1,1.73-2.31,8.34,8.34,0,0,1,2.89-1.45,15.55,15.55,0,0,1,4.14-.5,15.29,15.29,0,0,1,4.12.5,7.84,7.84,0,0,1,2.89,1.44,6.08,6.08,0,0,1,1.71,2.29A8.19,8.19,0,0,1,692.13,414.93Z" transform="translate(-498.82 -345)"/><path class="cls-1" d="M726.35,414.68a5.43,5.43,0,0,0,1.22-3.66,6.17,6.17,0,0,0-.49-2.53,4.5,4.5,0,0,0-1.59-1.88,7.6,7.6,0,0,0-2.64-1.07,17.3,17.3,0,0,0-3.71-.33h-9.67v19.44h2.8v-7.83h6.87c.28,0,.55,0,.83,0h.47l5.89,7.86h3.54l-6.41-8.29A6.13,6.13,0,0,0,726.35,414.68Zm-14.09-6.79h5.11c1.45,0,2.67.05,3.67.14a8.31,8.31,0,0,1,2.27.49,2.12,2.12,0,0,1,1.07.88,3.23,3.23,0,0,1,.33,1.62,3.32,3.32,0,0,1-.33,1.6,2.15,2.15,0,0,1-1.1.87A7.56,7.56,0,0,1,721,414c-1,.07-2.23.12-3.68.12h-5Z" transform="translate(-498.82 -345)"/><path class="cls-1" d="M740.1,407.85h8.31v16.78h2.8V407.85h8.33v-2.66H740.1Z" transform="translate(-498.82 -345)"/><path class="cls-1" d="M789.77,417.46a5,5,0,0,0-1.31-1.43A9.15,9.15,0,0,0,786.6,415a20.4,20.4,0,0,0-2.17-.78c-.75-.22-1.53-.44-2.32-.64s-1.54-.38-2.29-.58-1.42-.38-2.07-.59a10.25,10.25,0,0,1-1.64-.69,3.41,3.41,0,0,1-1-.78,1.28,1.28,0,0,1-.31-.84,1.74,1.74,0,0,1,.34-1.08,2.9,2.9,0,0,1,1.11-.82,7.44,7.44,0,0,1,2-.54,20.94,20.94,0,0,1,5.13,0,17.07,17.07,0,0,1,1.91.37,9.87,9.87,0,0,1,1.48.49c.44.18.84.36,1.17.52l.83.39v-3.26l-.43-.11-1.72-.43c-.58-.13-1.16-.26-1.77-.36S783.59,405,783,405a20.68,20.68,0,0,0-4.09,0,15.77,15.77,0,0,0-2,.3,10.54,10.54,0,0,0-1.85.6,6.15,6.15,0,0,0-1.55,1,4.49,4.49,0,0,0-1.1,1.42,4.12,4.12,0,0,0-.4,1.88,3.55,3.55,0,0,0,.52,1.93,4.8,4.8,0,0,0,1.33,1.41,8.4,8.4,0,0,0,1.86,1,20.83,20.83,0,0,0,2.15.74c.75.21,1.51.41,2.32.59l2.28.55c.71.18,1.4.4,2.06.61a8.08,8.08,0,0,1,1.61.72,3.19,3.19,0,0,1,1,.85,1.58,1.58,0,0,1,.32,1,1.86,1.86,0,0,1-.41,1.23,3.3,3.3,0,0,1-1.3.9,8,8,0,0,1-2.16.55,22.41,22.41,0,0,1-7-.21,11.72,11.72,0,0,1-3.65-1.41l-.87-.51v3.44l.38.14a24.89,24.89,0,0,0,3.78,1,26,26,0,0,0,4.43.35c.7,0,1.42,0,2.15-.09a20.25,20.25,0,0,0,2.15-.3,12,12,0,0,0,2-.61,6.48,6.48,0,0,0,1.7-1,4.41,4.41,0,0,0,1.63-3.54A3.69,3.69,0,0,0,789.77,417.46Z" transform="translate(-498.82 -345)"/><path class="cls-1" d="M550.08,376.13V345.78h8.19v30.35Z" transform="translate(-498.82 -345)"/><path class="cls-1" d="M603.63,375.25c-1.07.35-2.18.65-3.34.91a29,29,0,0,1-3.63.58,37.72,37.72,0,0,1-4.11.2,34.49,34.49,0,0,1-8.53-1,20,20,0,0,1-6.71-3,13.8,13.8,0,0,1-4.38-5,14.92,14.92,0,0,1-1.58-7,14.68,14.68,0,0,1,1.58-7,14,14,0,0,1,4.38-5,19.82,19.82,0,0,1,6.71-3,34.61,34.61,0,0,1,8.53-1,40.82,40.82,0,0,1,4.11.19,33.17,33.17,0,0,1,3.63.58c1.14.26,2.26.57,3.34.92s2.14.75,3.21,1.19v7.37c-.84-.46-1.73-.91-2.66-1.36a25.74,25.74,0,0,0-11.29-2.44,22.06,22.06,0,0,0-6.43.79,11.39,11.39,0,0,0-4.07,2.13,7.1,7.1,0,0,0-2.14,3,10.43,10.43,0,0,0-.62,3.54,12.07,12.07,0,0,0,.25,2.4,7.55,7.55,0,0,0,.89,2.23,8.12,8.12,0,0,0,1.62,1.94,9,9,0,0,0,2.47,1.52,15.76,15.76,0,0,0,3.46,1,25.68,25.68,0,0,0,4.57.37,28.13,28.13,0,0,0,4.53-.33,26,26,0,0,0,3.69-.85,21.11,21.11,0,0,0,3.07-1.21c.93-.45,1.82-.91,2.66-1.37V374C605.78,374.49,604.71,374.88,603.63,375.25Z" transform="translate(-498.82 -345)"/><path class="cls-1" d="M690.21,345a43.31,43.31,0,0,1,8.3.76,45.75,45.75,0,0,1,7,2v7.41a28,28,0,0,0-2.84-1.37,32.88,32.88,0,0,0-3.44-1.18,35.31,35.31,0,0,0-4-.82,30.45,30.45,0,0,0-4.46-.3,27.19,27.19,0,0,0-5.08.41A15.5,15.5,0,0,0,682,353a9.08,9.08,0,0,0-2.53,1.65,7.63,7.63,0,0,0-2.36,4.16,10,10,0,0,0-.23,2.14,11.82,11.82,0,0,0,.18,2,8,8,0,0,0,.7,2.12,8.19,8.19,0,0,0,1.45,2,9.08,9.08,0,0,0,2.41,1.72,15.08,15.08,0,0,0,3.59,1.21,24,24,0,0,0,5,.46c1,0,1.81,0,2.53-.1s1.38-.13,2-.24,1.16-.23,1.67-.38l1.62-.46v-3.66h-9.18V359h17.38v15.51a37.78,37.78,0,0,1-3.66,1c-1.35.3-2.74.56-4.19.78s-2.86.38-4.31.5-2.81.18-4.1.18a42.24,42.24,0,0,1-5.72-.39,27.28,27.28,0,0,1-5.11-1.23,20.06,20.06,0,0,1-4.34-2.1,14.14,14.14,0,0,1-3.34-3.05,13.54,13.54,0,0,1-2.13-4.06,16.2,16.2,0,0,1-.77-5.15,15.41,15.41,0,0,1,.8-5.12,13.26,13.26,0,0,1,2.21-4.06,14.36,14.36,0,0,1,3.42-3.06,20.46,20.46,0,0,1,4.39-2.1,28.08,28.08,0,0,1,5.13-1.22A41.27,41.27,0,0,1,690.21,345Z" transform="translate(-498.82 -345)"/><path class="cls-1" d="M740.17,353.29l-11.35,22.84h-9.14l15.88-30.35h9.15l15.88,30.35h-9.14Z" transform="translate(-498.82 -345)"/><path class="cls-1" d="M813.15,376.13V354.81l-11.26,21.32H794l-11.26-21.32v21.32h-8.2V345.78h11.14l12.26,23,12.25-23h11.1v30.35Z" transform="translate(-498.82 -345)"/><path class="cls-1" d="M844.68,369.65v-5.92h21.17v-6.48H836.27v18.88h31.05v-6.48ZM867,352.25v-6.47H836.27v6.47Z" transform="translate(-498.82 -345)"/><path class="cls-1" d="M514.4,360.34l20.43-14.56h-11l-16.78,11.57L498.82,363v13.11h8.24V363.51l17.18,12.62h12Z" transform="translate(-498.82 -345)"/><path class="cls-1" d="M507.06,345.78h-8.24V354h8.24Z" transform="translate(-498.82 -345)"/><path class="cls-1" d="M637.77,360.34l20.44-14.56h-11l-16.79,11.57L622.19,363v13.11h8.24V363.51l17.18,12.62h11.95Z" transform="translate(-498.82 -345)"/><path class="cls-1" d="M630.43,345.78h-8.24V354h8.24Z" transform="translate(-498.82 -345)"/></svg>