<svg id="Слой_1" data-name="Слой 1" xmlns="http://www.w3.org/2000/svg" viewBox="0 0 154 15.65"><defs><style>.cls-1{fill:#3d3667;}</style></defs><title>logo-footer</title><path class="cls-1" d="M627.42,391.25V376.38h3.43v14.87Z" transform="translate(-606 -376)"/><path class="cls-1" d="M649.8,390.82a14.13,14.13,0,0,1-1.39.45,11.71,11.71,0,0,1-1.52.28,13.17,13.17,0,0,1-1.72.1,12.5,12.5,0,0,1-3.56-.49,7.83,7.83,0,0,1-2.81-1.46,6.72,6.72,0,0,1-1.83-2.45,8.41,8.41,0,0,1-.66-3.42,8.3,8.3,0,0,1,.66-3.43A6.68,6.68,0,0,1,638.8,378a8,8,0,0,1,2.81-1.47,12.51,12.51,0,0,1,3.56-.48,15.42,15.42,0,0,1,1.72.09,11.69,11.69,0,0,1,1.52.29c.48.13.94.28,1.39.45a14.26,14.26,0,0,1,1.34.58V381c-.35-.22-.72-.45-1.11-.66a9.5,9.5,0,0,0-1.28-.6,10,10,0,0,0-1.54-.44,9.91,9.91,0,0,0-1.9-.16,7.91,7.91,0,0,0-2.68.39,4.39,4.39,0,0,0-1.7,1,3.48,3.48,0,0,0-.9,1.49,5.89,5.89,0,0,0-.26,1.73,6.53,6.53,0,0,0,.11,1.17,4.2,4.2,0,0,0,.37,1.1,3.81,3.81,0,0,0,.68.94,3.38,3.38,0,0,0,1,.75,5.86,5.86,0,0,0,1.45.5,9,9,0,0,0,1.9.17,10.85,10.85,0,0,0,1.9-.15,10.42,10.42,0,0,0,1.54-.42,8.4,8.4,0,0,0,1.28-.59l1.11-.67v3.61C650.7,390.44,650.26,390.64,649.8,390.82Z" transform="translate(-606 -376)"/><path class="cls-1" d="M686,376a15.78,15.78,0,0,1,3.47.37,16.89,16.89,0,0,1,2.94,1V381a11.54,11.54,0,0,0-1.18-.67,10.54,10.54,0,0,0-1.44-.57,12.59,12.59,0,0,0-1.66-.41,11.12,11.12,0,0,0-1.86-.15,10.28,10.28,0,0,0-2.13.2,6.36,6.36,0,0,0-1.55.56,4,4,0,0,0-1.06.8,4,4,0,0,0-1,2,5.38,5.38,0,0,0-.1,1,6.9,6.9,0,0,0,.08,1,4.64,4.64,0,0,0,.29,1,3.88,3.88,0,0,0,1.61,1.83,5.73,5.73,0,0,0,1.5.6,9,9,0,0,0,2.09.22c.41,0,.76,0,1.06-.05s.57-.06.83-.11.48-.12.7-.19l.67-.23V386.1h-3.84v-3.26h7.27v7.6a13.83,13.83,0,0,1-1.53.49c-.56.15-1.14.28-1.75.38s-1.2.19-1.81.25-1.17.09-1.7.09a14.39,14.39,0,0,1-2.4-.2,9.55,9.55,0,0,1-2.13-.6,7.15,7.15,0,0,1-1.81-1,6.39,6.39,0,0,1-1.4-1.49,7.09,7.09,0,0,1-.89-2,9.34,9.34,0,0,1-.32-2.52,8.92,8.92,0,0,1,.33-2.51,7,7,0,0,1,.92-2,6.58,6.58,0,0,1,1.43-1.5,8.46,8.46,0,0,1,1.84-1,10.38,10.38,0,0,1,2.14-.6A15.67,15.67,0,0,1,686,376Z" transform="translate(-606 -376)"/><path class="cls-1" d="M706.87,380.06l-4.75,11.19H698.3l6.64-14.87h3.82l6.64,14.87h-3.82Z" transform="translate(-606 -376)"/><path class="cls-1" d="M737.37,391.25V380.81l-4.71,10.44h-3.29l-4.7-10.44v10.44h-3.43V376.38h4.66L731,387.63l5.12-11.25h4.64v14.87Z" transform="translate(-606 -376)"/><path class="cls-1" d="M750.54,388.07v-2.9h8.85V382H747v9.25h13v-3.18Zm9.33-8.52v-3.17H747v3.17Z" transform="translate(-606 -376)"/><path class="cls-1" d="M612.51,383.51l8.54-7.13h-4.59l-7,5.67L606,384.83v6.42h3.44v-6.18l7.19,6.18h5Z" transform="translate(-606 -376)"/><path class="cls-1" d="M609.44,376.38H606v4h3.44Z" transform="translate(-606 -376)"/><path class="cls-1" d="M664.07,383.51l8.54-7.13H668l-7,5.67-3.44,2.78v6.42H661v-6.18l7.18,6.18h5Z" transform="translate(-606 -376)"/><path class="cls-1" d="M661,376.38h-3.44v4H661Z" transform="translate(-606 -376)"/></svg>