<svg id="Слой_1" data-name="Слой 1" xmlns="http://www.w3.org/2000/svg" viewBox="0 0 22 22"><defs><style>.cls-1{fill:#261f55;}.cls-2{fill:#5f5a82;}</style></defs><title>manage</title><circle class="cls-1" cx="11" cy="11" r="11"/><path class="cls-2" d="M688.22,382.7h-1a4.41,4.41,0,0,0-.32-.78l.69-.69a.77.77,0,0,0,0-1.1l-.74-.74a.78.78,0,0,0-1.1,0l-.69.69a4.41,4.41,0,0,0-.78-.32v-1a.78.78,0,0,0-.78-.78h-1a.78.78,0,0,0-.78.78v1a4.41,4.41,0,0,0-.78.32l-.69-.69a.77.77,0,0,0-1.1,0l-.74.74a.77.77,0,0,0,0,1.1l.69.69a4.41,4.41,0,0,0-.32.78h-1a.78.78,0,0,0-.78.78v1a.78.78,0,0,0,.78.78h1a4.41,4.41,0,0,0,.32.78l-.69.69a.77.77,0,0,0,0,1.1l.74.74a.77.77,0,0,0,1.1,0l.69-.69a4.41,4.41,0,0,0,.78.32v1a.78.78,0,0,0,.78.78h1a.78.78,0,0,0,.78-.78v-1a4.41,4.41,0,0,0,.78-.32l.69.69a.78.78,0,0,0,1.1,0l.74-.74a.77.77,0,0,0,0-1.1l-.69-.69a4.41,4.41,0,0,0,.32-.78h1a.78.78,0,0,0,.78-.78v-1A.78.78,0,0,0,688.22,382.7Zm.26,1.82a.26.26,0,0,1-.26.26H687a.26.26,0,0,0-.25.2,3.86,3.86,0,0,1-.42,1,.27.27,0,0,0,0,.32l.83.83a.24.24,0,0,1,0,.36l-.74.74a.27.27,0,0,1-.37,0l-.82-.83a.27.27,0,0,0-.32,0,3.86,3.86,0,0,1-1,.42.26.26,0,0,0-.2.25v1.18a.26.26,0,0,1-.26.26h-1a.26.26,0,0,1-.26-.26V388a.26.26,0,0,0-.2-.25,3.86,3.86,0,0,1-1-.42.31.31,0,0,0-.13,0,.26.26,0,0,0-.19.07l-.83.83a.25.25,0,0,1-.36,0l-.74-.74a.27.27,0,0,1,0-.37l.83-.82a.27.27,0,0,0,0-.32,3.86,3.86,0,0,1-.42-1,.26.26,0,0,0-.25-.2h-1.18a.26.26,0,0,1-.26-.26v-1a.26.26,0,0,1,.26-.26H679a.26.26,0,0,0,.25-.2,3.86,3.86,0,0,1,.42-1,.27.27,0,0,0,0-.32l-.83-.82a.27.27,0,0,1,0-.37l.74-.74a.27.27,0,0,1,.37,0l.82.83a.27.27,0,0,0,.32,0,3.86,3.86,0,0,1,1-.42.26.26,0,0,0,.2-.25v-1.18a.26.26,0,0,1,.26-.26h1a.26.26,0,0,1,.26.26V380a.26.26,0,0,0,.2.25,3.86,3.86,0,0,1,1,.42.27.27,0,0,0,.32,0l.82-.83a.27.27,0,0,1,.37,0l.74.74a.23.23,0,0,1,.08.18.27.27,0,0,1-.08.19l-.83.82a.27.27,0,0,0,0,.32,3.86,3.86,0,0,1,.42,1,.26.26,0,0,0,.25.2h1.18a.26.26,0,0,1,.26.26Z" transform="translate(-672 -373)"/><path class="cls-2" d="M683,381.65a2.35,2.35,0,1,0,2.35,2.35A2.36,2.36,0,0,0,683,381.65Zm0,4.18a1.83,1.83,0,1,1,1.83-1.83A1.83,1.83,0,0,1,683,385.83Z" transform="translate(-672 -373)"/></svg>