<svg id="Слой_1" data-name="Слой 1" xmlns="http://www.w3.org/2000/svg" viewBox="0 0 72 72"><defs><style>.cls-1{fill:#400c4d;stroke:#280c3e;}.cls-2,.cls-3{fill:#280c3e;}.cls-3,.cls-4,.cls-5{stroke:#ff10cb;stroke-width:2px;}.cls-4,.cls-5{fill:none;}.cls-4{stroke-linejoin:round;}</style></defs><title>plan-elit</title><rect class="cls-1" x="0.5" y="0.5" width="71" height="71" rx="17.5"/><path class="cls-2" d="M667.32,369a2,2,0,0,1,2-2H696.4a2,2,0,0,1,2,2v22.17a2,2,0,0,1-.79,1.59l-13.54,10.32a2,2,0,0,1-2.42,0l-13.54-10.32a2,2,0,0,1-.79-1.59Z" transform="translate(-647 -348)"/><path class="cls-3" d="M671.28,372a1,1,0,0,1,1-1h21.16a1,1,0,0,1,1,1v18.17a1,1,0,0,1-.38.78l-10.58,8.36a1,1,0,0,1-1.24,0l-10.58-8.36a1,1,0,0,1-.38-.78Z" transform="translate(-647 -348)"/><path class="cls-4" d="M675,382l4-5h8l4,5-8,9Z" transform="translate(-647 -348)"/><path class="cls-4" d="M687,377l-4,5-4-5" transform="translate(-647 -348)"/><path class="cls-5" d="M675,382h16" transform="translate(-647 -348)"/></svg>