<svg id="Слой_1" data-name="Слой 1" xmlns="http://www.w3.org/2000/svg" viewBox="0 0 23.57 29"><defs><style>.cls-1{fill:#fd646f;}.cls-2{fill:#ffe500;}.cls-3,.cls-5{fill:#100b2e;}.cls-4{fill:#eeca0a;}.cls-5{fill-rule:evenodd;}</style></defs><path class="cls-1" d="M971.65,552l-3.49-.77-1.08,3.42a.3.3,0,0,1-.54.06l-4.32-7.51a10.71,10.71,0,0,0,5.47-3.07l4.28,7.43A.3.3,0,0,1,971.65,552Z" transform="translate(-948.43 -525.89)"/><path class="cls-2" d="M971.65,552l-3.23-.71a.29.29,0,0,0-.34.2l-1,3.16a.3.3,0,0,1-.54.06l-3.7-6.43-.62-1.08a10.71,10.71,0,0,0,5.47-3.07l.62,1.07,3.66,6.36A.3.3,0,0,1,971.65,552Z" transform="translate(-948.43 -525.89)"/><path class="cls-3" d="M971.65,552l-3.23-.71a.29.29,0,0,0-.34.2l.34-1.08a.3.3,0,0,1,.35-.2l2.78.62.42.73A.3.3,0,0,1,971.65,552Z" transform="translate(-948.43 -525.89)"/><path class="cls-2" d="M958.3,547.12l-4.39,7.62a.29.29,0,0,1-.54-.06l-1-3.15a.29.29,0,0,0-.35-.2l-3.22.71a.3.3,0,0,1-.32-.44l4.08-7.09A10.74,10.74,0,0,0,958.3,547.12Z" transform="translate(-948.43 -525.89)"/><path class="cls-3" d="M953.13,545.56l-3.63,6.32-.7.16a.3.3,0,0,1-.32-.44l3.47-6,.94-1.63a8.57,8.57,0,0,0,.79.68Z" transform="translate(-948.43 -525.89)"/><path class="cls-3" d="M954.34,554l-.43.74a.29.29,0,0,1-.54-.06l-1-3.15a.29.29,0,0,0-.35-.2l1.11-.25a.29.29,0,0,1,.34.2Z" transform="translate(-948.43 -525.89)"/><path class="cls-3" d="M952.65,544.33l2.89,1.3,2.75,1.49-.73,1.28a11.74,11.74,0,0,1-5.55-2.78l-.06-.06Z" transform="translate(-948.43 -525.89)"/><path class="cls-3" d="M968.31,545.21l-.62-1.07-3.25,1.43-2.22,1.64.25.44.61,1.06,3.46,6a.3.3,0,0,0,.54-.05l.22-.7-3.44-6A12,12,0,0,0,968.31,545.21Z" transform="translate(-948.43 -525.89)"/><path class="cls-2" d="M971,536.67a10.78,10.78,0,0,1-10.75,10.79,10.17,10.17,0,0,1-1.75-.15,10.58,10.58,0,0,1-5.39-2.58l-.24-.22a10.33,10.33,0,0,1-.79-.83c-.24-.28-.46-.57-.67-.87a10.77,10.77,0,0,1,15-15c.3.21.59.44.87.68a10.11,10.11,0,0,1,1,1A10.74,10.74,0,0,1,971,536.67Z" transform="translate(-948.43 -525.89)"/><path class="cls-2" d="M960.22,544.4a7.73,7.73,0,1,0-7.7-7.73A7.72,7.72,0,0,0,960.22,544.4Z" transform="translate(-948.43 -525.89)"/><path class="cls-4" d="M967.92,536.67a7.7,7.7,0,1,1-15.4,0,7.46,7.46,0,0,1,.06-.95,7.7,7.7,0,0,0,15.28,0A7.46,7.46,0,0,1,967.92,536.67Z" transform="translate(-948.43 -525.89)"/><path class="cls-5" d="M960.22,529a7.73,7.73,0,1,0,7.7,7.72A7.71,7.71,0,0,0,960.22,529Zm0,14.55a6.83,6.83,0,1,1,6.81-6.83A6.83,6.83,0,0,1,960.22,543.5Z" transform="translate(-948.43 -525.89)"/></svg>