<svg viewBox="0 0 939 502" fill="none" xmlns="http://www.w3.org/2000/svg" >
<g filter="url(#filter0_biiiii)">
<path  fill-rule="evenodd" clip-rule="evenodd" d="M367.71 37.9419C386.449 17.1366 412.762 4.88771 446.651 1.19515L472.025 27.4246C473.805 29.2648 474.221 32.032 473.061 34.3146L461.389 57.2822C460.253 59.5173 460.627 62.223 462.326 64.0666L479.588 82.798C481.562 84.9391 481.713 88.1877 479.947 90.5028L472.479 100.294C471.577 100.171 470.633 100.108 469.646 100.108C447.156 100.108 447.156 132.5 447.156 145.346V361.323C447.156 387.308 453.881 400.987 467.331 402.361L465.655 407.18C464.942 409.23 465.392 411.506 466.832 413.131L481.292 429.445C482.926 431.289 483.267 433.943 482.153 436.14L469.018 462.024C467.82 464.384 468.311 467.251 470.226 469.079L473.854 472.543C476.174 474.757 476.342 478.404 474.237 480.823L456.16 501.586C419.045 499.252 389.951 487.034 368.878 464.934C345.512 440.223 333.828 406.853 333.828 364.826V141.552C333.828 97.7732 345.122 63.2364 367.71 37.9419ZM486.399 501.314C521.081 498.383 548.696 486.062 569.246 464.35C593.001 439.25 604.879 406.075 604.879 364.826V141.552C604.879 97.9678 593.488 63.5283 570.706 38.2337C550.634 15.583 521.797 2.99649 484.195 0.474123L494.558 32.1219C495.15 33.9319 494.848 35.9157 493.744 37.4675L479.255 57.8313C477.883 59.759 477.772 62.3128 478.972 64.352L489.974 83.0552C491.201 85.1415 491.054 87.7609 489.602 89.6973L479.665 102.947C492.136 111.193 492.136 135.203 492.136 145.346V361.323C492.136 385.948 486.096 399.522 474.017 402.044L473.567 404.235C473.208 405.986 473.648 407.807 474.769 409.2L491.31 429.776C492.664 431.46 493.008 433.741 492.211 435.749L482.19 461.002C481.447 462.874 481.693 464.994 482.844 466.646L490.856 478.141C491.895 479.632 492.203 481.515 491.691 483.259L486.399 501.314ZM94.2911 309.956C85.9498 309.956 80.153 301.656 83.0247 293.824L142.666 131.181C144.205 126.984 150.422 128.088 150.422 132.558V297.956C150.422 304.583 145.049 309.956 138.422 309.956H94.2911ZM150.422 468.077C150.422 481.332 161.167 492.077 174.422 492.077H222.808C236.063 492.077 246.808 481.332 246.808 468.077V389.256C246.808 387.047 248.599 385.256 250.808 385.256H266.62C279.875 385.256 290.62 374.511 290.62 361.256V333.956C290.62 320.701 279.875 309.956 266.62 309.956H250.808C248.599 309.956 246.808 308.165 246.808 305.956V32.1721C246.808 18.9172 236.063 8.17208 222.808 8.17208H142.731C133.058 8.17208 124.331 13.9787 120.594 22.9005L1.8632 306.383C0.633361 309.319 0 312.471 0 315.654V361.256C0 374.511 10.7451 385.256 24 385.256H146.422C148.631 385.256 150.422 387.047 150.422 389.256V468.077ZM731.404 293.824C728.533 301.656 734.329 309.956 742.671 309.956H786.801C793.429 309.956 798.801 304.583 798.801 297.956V132.558C798.801 128.088 792.585 126.984 791.046 131.181L731.404 293.824ZM822.801 492.077C809.546 492.077 798.801 481.332 798.801 468.077V389.256C798.801 387.047 797.01 385.256 794.801 385.256H672.38C659.125 385.256 648.38 374.511 648.38 361.256V315.654C648.38 312.471 649.013 309.319 650.243 306.383L768.974 22.9005C772.711 13.9787 781.438 8.17208 791.111 8.17208H871.188C884.443 8.17208 895.188 18.9172 895.188 32.1721V305.956C895.188 308.165 896.979 309.956 899.188 309.956H915C928.255 309.956 939 320.701 939 333.956V361.256C939 374.511 928.255 385.256 915 385.256H899.188C896.979 385.256 895.188 387.047 895.188 389.256V468.077C895.188 481.332 884.443 492.077 871.188 492.077H822.801Z" fill="white" fill-opacity="0.01"/>
</g>
<defs>
<filter id="filter0_biiiii" x="-14" y="-13.5259" width="967" height="529.112" filterUnits="userSpaceOnUse" color-interpolation-filters="sRGB">
<feFlood flood-opacity="0" result="BackgroundImageFix"/>
<feGaussianBlur in="BackgroundImage" stdDeviation="7"/>
<feComposite in2="SourceAlpha" operator="in" result="effect1_backgroundBlur"/>
<feBlend mode="normal" in="SourceGraphic" in2="effect1_backgroundBlur" result="shape"/>
<feColorMatrix in="SourceAlpha" type="matrix" values="0 0 0 0 0 0 0 0 0 0 0 0 0 0 0 0 0 0 127 0" result="hardAlpha"/>
<feOffset dy="6"/>
<feGaussianBlur stdDeviation="10.5"/>
<feComposite in2="hardAlpha" operator="arithmetic" k2="-1" k3="1"/>
<feColorMatrix type="matrix" values="0 0 0 0 0 0 0 0 0 1 0 0 0 0 0.94 0 0 0 0.08 0"/>
<feBlend mode="normal" in2="shape" result="effect2_innerShadow"/>
<feColorMatrix in="SourceAlpha" type="matrix" values="0 0 0 0 0 0 0 0 0 0 0 0 0 0 0 0 0 0 127 0" result="hardAlpha"/>
<feOffset dy="-4"/>
<feGaussianBlur stdDeviation="12.5"/>
<feComposite in2="hardAlpha" operator="arithmetic" k2="-1" k3="1"/>
<feColorMatrix type="matrix" values="0 0 0 0 1 0 0 0 0 1 0 0 0 0 1 0 0 0 0.06 0"/>
<feBlend mode="normal" in2="effect2_innerShadow" result="effect3_innerShadow"/>
<feColorMatrix in="SourceAlpha" type="matrix" values="0 0 0 0 0 0 0 0 0 0 0 0 0 0 0 0 0 0 127 0" result="hardAlpha"/>
<feOffset dy="2"/>
<feGaussianBlur stdDeviation="3"/>
<feComposite in2="hardAlpha" operator="arithmetic" k2="-1" k3="1"/>
<feColorMatrix type="matrix" values="0 0 0 0 0 0 0 0 0 1 0 0 0 0 0.94 0 0 0 0.21 0"/>
<feBlend mode="normal" in2="effect3_innerShadow" result="effect4_innerShadow"/>
<feColorMatrix in="SourceAlpha" type="matrix" values="0 0 0 0 0 0 0 0 0 0 0 0 0 0 0 0 0 0 127 0" result="hardAlpha"/>
<feOffset dx="2" dy="6"/>
<feGaussianBlur stdDeviation="4"/>
<feComposite in2="hardAlpha" operator="arithmetic" k2="-1" k3="1"/>
<feColorMatrix type="matrix" values="0 0 0 0 1 0 0 0 0 0.0643957 0 0 0 0 0.794167 0 0 0 0.32 0"/>
<feBlend mode="normal" in2="effect4_innerShadow" result="effect5_innerShadow"/>
<feColorMatrix in="SourceAlpha" type="matrix" values="0 0 0 0 0 0 0 0 0 0 0 0 0 0 0 0 0 0 127 0" result="hardAlpha"/>
<feOffset dx="-4" dy="-4"/>
<feGaussianBlur stdDeviation="9"/>
<feComposite in2="hardAlpha" operator="arithmetic" k2="-1" k3="1"/>
<feColorMatrix type="matrix" values="0 0 0 0 0 0 0 0 0 1 0 0 0 0 0.94 0 0 0 0.12 0"/>
<feBlend mode="normal" in2="effect5_innerShadow" result="effect6_innerShadow"/>
</filter>
</defs>
</svg>
