<svg id="Слой_1" data-name="Слой 1" xmlns="http://www.w3.org/2000/svg" xmlns:xlink="http://www.w3.org/1999/xlink" viewBox="0 0 21 24"><defs><style>.cls-1,.cls-3{fill:none;}.cls-2{clip-path:url(#clip-path);}.cls-3{stroke:#ffe500;stroke-linejoin:round;stroke-width:2px;}</style><clipPath id="clip-path" transform="translate(-673 -372)"><rect class="cls-1" x="671" y="372" width="24" height="24"/></clipPath></defs><title>tik-tok</title><g class="cls-2"><path class="cls-3" d="M684.05,381l0,7a2.92,2.92,0,0,1-3,3c-3,0-4.06-4.17-2.14-5.67a2.56,2.56,0,0,1,2.12-.57v-3.61a5.63,5.63,0,0,0-5,1.91,6.75,6.75,0,0,0-2,5,6.67,6.67,0,0,0,1.92,4.87,6.77,6.77,0,0,0,11.45-3c.2-.67.22-1.23.19-4.84l0-4.09.89.46a9.12,9.12,0,0,0,3.61,1l.9,0,0-1.91,0-1.92-.84-.06c-2.56-.21-4.1-1.75-4.49-4.51-.06-.44-.12-1-.12-1l-3.46,0Z" transform="translate(-673 -372)"/></g></svg>