<svg id="Слой_1" data-name="Слой 1" xmlns="http://www.w3.org/2000/svg" xmlns:xlink="http://www.w3.org/1999/xlink" viewBox="0 0 26 64"><defs><style>.cls-1{fill:url(#Безымянный_градиент_8);}.cls-2{fill:url(#Безымянный_градиент_8-2);}.cls-3{fill:url(#Безымянный_градиент_8-3);}.cls-4{fill:url(#Безымянный_градиент_8-4);}.cls-5{fill:url(#Безымянный_градиент_8-5);}.cls-6{fill:url(#Безымянный_градиент_8-6);}.cls-7{fill:url(#Безымянный_градиент_8-7);}.cls-8{fill:url(#Безымянный_градиент_8-8);}</style><linearGradient id="Безымянный_градиент_8" x1="657.94" y1="365.24" x2="696.55" y2="356.42" gradientTransform="matrix(1, 0, 0, -1, 0, 770)" gradientUnits="userSpaceOnUse"><stop offset="0" stop-color="#fff" stop-opacity="0.25"/><stop offset="1" stop-color="#fff" stop-opacity="0.01"/></linearGradient><linearGradient id="Безымянный_градиент_8-2" x1="658.87" y1="369.31" x2="697.48" y2="360.49" xlink:href="#Безымянный_градиент_8"/><linearGradient id="Безымянный_градиент_8-3" x1="660.25" y1="375.31" x2="698.85" y2="366.49" xlink:href="#Безымянный_градиент_8"/><linearGradient id="Безымянный_градиент_8-4" x1="662.07" y1="383.31" x2="700.68" y2="374.49" xlink:href="#Безымянный_градиент_8"/><linearGradient id="Безымянный_градиент_8-5" x1="664.16" y1="392.45" x2="702.77" y2="383.63" xlink:href="#Безымянный_градиент_8"/><linearGradient id="Безымянный_градиент_8-6" x1="666.46" y1="402.5" x2="705.07" y2="393.67" xlink:href="#Безымянный_градиент_8"/><linearGradient id="Безымянный_градиент_8-7" x1="668.54" y1="411.63" x2="707.15" y2="402.81" xlink:href="#Безымянный_градиент_8"/><linearGradient id="Безымянный_градиент_8-8" x1="670.18" y1="418.81" x2="708.79" y2="409.98" xlink:href="#Безымянный_градиент_8"/></defs><title>top-place-left</title><path class="cls-1" d="M695.2,414.09a1.5,1.5,0,0,0-.42-1.52,20.2,20.2,0,0,1-3.34-4.17,1.72,1.72,0,0,0-2.28-.6,1.51,1.51,0,0,0-.63,2.13,21.14,21.14,0,0,0,1.91,2.72,23.45,23.45,0,0,1-2.91.21,1.72,1.72,0,0,0-1.44.8,1.48,1.48,0,0,0,0,1.57,1.71,1.71,0,0,0,1.45.77h0a29.31,29.31,0,0,0,6.41-.82A1.62,1.62,0,0,0,695.2,414.09Z" transform="translate(-670 -352)"/><path class="cls-2" d="M686.21,408.55a23.53,23.53,0,0,1-1.39-5.12,1.58,1.58,0,0,0-1-1.26,1.74,1.74,0,0,0-1.68.23,1.5,1.5,0,0,0-.61,1.48,27.72,27.72,0,0,0,.69,3.13,20.69,20.69,0,0,1-2.31-.74,1.77,1.77,0,0,0-1.67.19,1.53,1.53,0,0,0-.64,1.47,1.58,1.58,0,0,0,1,1.24,25.52,25.52,0,0,0,5.79,1.48l.24,0A1.72,1.72,0,0,0,686,410a1.49,1.49,0,0,0,.19-1.44Z" transform="translate(-670 -352)"/><path class="cls-3" d="M678.45,403.26a1.72,1.72,0,0,0,1.2-.47,1.54,1.54,0,0,0,.48-1.14,27.49,27.49,0,0,1,.34-5.36,1.59,1.59,0,0,0-1.4-1.76,1.67,1.67,0,0,0-1.91,1.28c-.15,1-.26,1.94-.33,2.92-.58-.43-1.15-.9-1.71-1.4a1.77,1.77,0,0,0-2.35.06,1.51,1.51,0,0,0,0,2.2,26.58,26.58,0,0,0,4.8,3.45A1.66,1.66,0,0,0,678.45,403.26Z" transform="translate(-670 -352)"/><path class="cls-4" d="M675,394.06a1.66,1.66,0,0,0,1.62-1.18,28.57,28.57,0,0,1,1.85-4.94,1.48,1.48,0,0,0-.13-1.59,1.72,1.72,0,0,0-1.55-.66,1.65,1.65,0,0,0-1.36.95c-.38.76-.72,1.56-1,2.38q-.64-1-1.23-2a1.68,1.68,0,0,0-1.43-.86,1.73,1.73,0,0,0-1.5.75,1.5,1.5,0,0,0,0,1.59,30.37,30.37,0,0,0,3.49,5A1.72,1.72,0,0,0,675,394.06Z" transform="translate(-670 -352)"/><path class="cls-5" d="M670.82,377.16a34.25,34.25,0,0,0,2,5.95,1.66,1.66,0,0,0,1.43,1h.11a1.7,1.7,0,0,0,1.45-.77,23.87,23.87,0,0,1,3.06-4,1.51,1.51,0,0,0-.14-2.22,1.75,1.75,0,0,0-2.36.13c-.53.56-1.05,1.15-1.55,1.77-.26-.82-.49-1.67-.7-2.53A1.62,1.62,0,0,0,673,375.3a1.77,1.77,0,0,0-1.65.34,1.49,1.49,0,0,0-.49,1.52Z" transform="translate(-670 -352)"/><path class="cls-6" d="M676.33,365.15a1.64,1.64,0,0,0-1.77,1.47,33.71,33.71,0,0,0,.17,6.35,1.58,1.58,0,0,0,1.06,1.29,1.74,1.74,0,0,0,1.7-.29,20.23,20.23,0,0,1,4-2.59,1.57,1.57,0,0,0,.9-1.33,1.54,1.54,0,0,0-.78-1.39,1.76,1.76,0,0,0-1.68-.05,21.72,21.72,0,0,0-2.06,1.15,29,29,0,0,1,.06-2.95,1.59,1.59,0,0,0-.42-1.14A1.69,1.69,0,0,0,676.33,365.15Z" transform="translate(-670 -352)"/><path class="cls-7" d="M687.93,363.18a1.52,1.52,0,0,0-.58-1.07,1.75,1.75,0,0,0-1.23-.35,21.23,21.23,0,0,0-2.64.37,26.84,26.84,0,0,1,1.09-2.95,1.48,1.48,0,0,0-.21-1.55,1.76,1.76,0,0,0-1.55-.6,1.68,1.68,0,0,0-1.33,1,29.49,29.49,0,0,0-1.92,6.09,1.52,1.52,0,0,0,.56,1.49,1.77,1.77,0,0,0,1.65.28,19.15,19.15,0,0,1,4.64-1A1.59,1.59,0,0,0,687.93,363.18Z" transform="translate(-670 -352)"/><path class="cls-8" d="M693.83,360.7a1.76,1.76,0,0,0,1.64-.35,1.53,1.53,0,0,0,.49-1.5,1.65,1.65,0,0,0-1.14-1.15,26.71,26.71,0,0,0-3.07-.69,21.24,21.24,0,0,1,2.25-2.3,1.51,1.51,0,0,0,.07-2.22,1.75,1.75,0,0,0-2.37-.06,25.44,25.44,0,0,0-4.35,5,1.49,1.49,0,0,0-.06,1.55,1.66,1.66,0,0,0,1.38.84A24.23,24.23,0,0,1,693.83,360.7Z" transform="translate(-670 -352)"/></svg>