<svg id="Слой_1" data-name="Слой 1" xmlns="http://www.w3.org/2000/svg" xmlns:xlink="http://www.w3.org/1999/xlink" viewBox="0 0 48 48"><defs><style>.cls-1,.cls-5,.cls-6{fill:none;}.cls-2{clip-path:url(#clip-path);}.cls-3{fill:url(#Безымянный_градиент_2);}.cls-4{fill:#0d3c55;stroke:#0e2341;}.cls-5,.cls-6{stroke:#00fff0;stroke-width:2px;}.cls-5{stroke-linecap:round;stroke-linejoin:round;}</style><clipPath id="clip-path" transform="translate(-659 -360)"><rect class="cls-1" x="659" y="360" width="48" height="48"/></clipPath><linearGradient id="Безымянный_градиент_2" x1="654.51" y1="402.02" x2="711.49" y2="369.98" gradientTransform="matrix(1, 0, 0, -1, -659, 410)" gradientUnits="userSpaceOnUse"><stop offset="0" stop-color="#fff" stop-opacity="0.4"/><stop offset="1" stop-color="#fff" stop-opacity="0"/></linearGradient></defs><title>tournament-page-icon</title><g class="cls-2"><rect class="cls-3" width="48" height="48" rx="12"/><rect class="cls-4" x="0.5" y="0.5" width="47" height="47" rx="11.5"/><path class="cls-5" d="M677.16,374H690v7.68a6.4,6.4,0,0,1-6.4,6.4h0a6.41,6.41,0,0,1-6.4-6.4Z" transform="translate(-659 -360)"/><path class="cls-5" d="M690,376.56h1.31a2.42,2.42,0,0,1,2.57,2.83c-.42,1.8-1.43,3.86-3.88,4.21" transform="translate(-659 -360)"/><path class="cls-5" d="M677.16,376.56h-1.3a2.42,2.42,0,0,0-2.57,2.83c.42,1.8,1.43,3.86,3.87,4.21" transform="translate(-659 -360)"/><path class="cls-6" d="M683.56,388.08v5.12" transform="translate(-659 -360)"/><path class="cls-5" d="M679.72,393.2h7.68" transform="translate(-659 -360)"/></g></svg>