<svg id="Слой_1" data-name="Слой 1" xmlns="http://www.w3.org/2000/svg" xmlns:xlink="http://www.w3.org/1999/xlink" viewBox="0 0 48 48"><defs><style>.cls-1{fill:none;}.cls-2{clip-path:url(#clip-path);}.cls-3{fill:#403725;stroke:#282129;}.cls-4,.cls-5{fill:#ffe500;}.cls-4{fill-rule:evenodd;}</style><clipPath id="clip-path" transform="translate(-658.5 -360)"><rect class="cls-1" x="658.5" y="360" width="48" height="48"/></clipPath></defs><title>tournament-page-icon-league</title><g class="cls-2"><rect class="cls-3" x="0.5" y="0.5" width="47" height="47" rx="11.5"/><path class="cls-4" d="M682.13,371.07a1,1,0,0,1,.74,0l9,3.6a1,1,0,0,1,.63.93V384c0,4-2.5,7.27-4.82,9.43a24.32,24.32,0,0,1-3.22,2.54c-.44.29-.8.52-1.06.67l-.31.18-.08,0,0,0h0l-.47-.88-.47.88h0l0,0-.08,0-.31-.18c-.26-.15-.62-.38-1.06-.67a24.32,24.32,0,0,1-3.22-2.54C675,391.27,672.5,388,672.5,384v-8.4a1,1,0,0,1,.63-.93ZM682.5,396l-.47.88a1,1,0,0,0,.94,0Zm0-1.15.85-.54a25.36,25.36,0,0,0,3-2.34c2.18-2,4.18-4.79,4.18-8v-7.72l-8-3.2-8,3.2V384c0,3.18,2,5.93,4.18,8a25.36,25.36,0,0,0,3,2.34Z" transform="translate(-658.5 -360)"/><path class="cls-5" d="M680,387v-8h2v6h3.5v2Z" transform="translate(-658.5 -360)"/></g></svg>