<svg id="Слой_1" data-name="Слой 1" xmlns="http://www.w3.org/2000/svg" xmlns:xlink="http://www.w3.org/1999/xlink" viewBox="0 0 23.5 14.62"><defs><style>.cls-1,.cls-3{fill:none;}.cls-2{clip-path:url(#clip-path);}.cls-3{stroke:#ffe500;stroke-linejoin:round;stroke-width:1.5px;}</style><clipPath id="clip-path" transform="translate(-671.25 -376.25)"><rect class="cls-1" x="671" y="372" width="24" height="24"/></clipPath></defs><title>vk</title><g class="cls-2"><path class="cls-3" d="M675.77,377.1a1.73,1.73,0,0,1,.65,1c0,.12.09.26.11.3l.2.51c.15.38.21.54.4,1s.91,1.84,1.16,2.25a7.56,7.56,0,0,0,1.63,2c.26.18.55.19.66,0s.09-.25.09-2.44,0-2.33-.1-2.58a2.36,2.36,0,0,0-.45-.86c-.34-.44-.41-.59-.38-.77a.65.65,0,0,1,.41-.49c.23-.07,4.09-.07,4.32,0a.43.43,0,0,1,.28.22l.12.18,0,2.77c0,2.92,0,2.93.23,3.06s.13.06.3,0a5.49,5.49,0,0,0,1.9-2l.28-.41c.07-.09.48-.8.68-1.16s.26-.49.33-.64.27-.55.43-.9c.32-.71.47-.92.73-1.06s.21-.1,1.78-.1h1.6l.17.11c.21.15.26.34.2.71a1.65,1.65,0,0,1-.09.36l-.15.36a25.19,25.19,0,0,1-2.11,3.59l-.66,1c-.48.69-.53.87-.34,1.2a10.46,10.46,0,0,0,.82.91,25,25,0,0,1,1.74,1.92,8,8,0,0,1,1.2,1.8,1.21,1.21,0,0,1,0,.75.75.75,0,0,1-.35.33c-.13.07-.27.08-1.7.08h-1.56l-.28-.16a7.7,7.7,0,0,1-1.49-1.44,10.16,10.16,0,0,0-2.44-2.12,1.89,1.89,0,0,0-.68-.2.66.66,0,0,0-.48.22,9.26,9.26,0,0,0-.08,1.62c0,1.49,0,1.51-.12,1.64-.24.32-.62.43-1.56.43a6.57,6.57,0,0,1-1.71-.19l-.46-.14-.43-.15a.7.7,0,0,0-.17-.06l-.14,0-.38-.19a9.78,9.78,0,0,1-1.35-.79,11.81,11.81,0,0,1-2.19-2.05,11.44,11.44,0,0,1-.69-.92,30,30,0,0,1-2.55-4.33l-.26-.57-.18-.42-.33-.92a4.22,4.22,0,0,1-.13-.41c0-.18-.11-.39-.14-.47A3.74,3.74,0,0,1,672,378c-.07-.58.06-.86.46-1,.07,0,.81,0,1.64,0C675.45,377,675.65,377,675.77,377.1Z" transform="translate(-671.25 -376.25)"/></g></svg>